<svg version="1.1" id="Layer_1" xmlns="http://www.w3.org/2000/svg" xmlns:xlink="http://www.w3.org/1999/xlink" x="0px" y="0px"
	 width="100%" viewBox="0 0 579 575" enable-background="new 0 0 579 575" xml:space="preserve">
<path fill="#0F0F0F" opacity="1.000000" stroke="none" 
	d="
M267.000000,576.000000 
	C178.000015,576.000000 89.500046,576.000000 1.000047,576.000000 
	C1.000032,384.333405 1.000032,192.666794 1.000016,1.000150 
	C193.999878,1.000100 386.999756,1.000100 579.999756,1.000050 
	C579.999817,192.666504 579.999817,384.333008 579.999878,575.999756 
	C475.833344,576.000000 371.666656,576.000000 267.000000,576.000000 
M477.038483,394.337891 
	C477.038483,319.968018 477.038483,245.598145 477.038483,171.228271 
	C476.595673,171.091385 476.152863,170.954483 475.710022,170.817596 
	C439.965973,220.976395 404.221893,271.135193 368.112671,321.806366 
	C332.093506,270.537506 296.845001,220.365601 260.714661,168.938522 
	C260.714661,245.180634 260.714661,319.954834 260.714661,394.797211 
	C269.957001,394.797211 279.166748,394.797211 289.013245,394.797211 
	C289.013245,349.260345 289.013245,304.112244 289.013245,257.666351 
	C315.672424,295.015839 341.496582,331.195465 367.821136,368.076141 
	C394.495178,330.110779 420.673248,292.851257 446.851349,255.591736 
	C447.335999,255.786896 447.820618,255.982071 448.305267,256.177246 
	C448.305267,302.357452 448.305267,348.537689 448.305267,394.995850 
	C458.058105,394.995850 467.187134,394.995850 477.038483,394.337891 
M94.906342,300.195190 
	C93.730949,300.975922 91.561012,301.724365 91.534462,302.542358 
	C91.277420,310.461090 91.380157,318.391510 91.380157,326.804993 
	C99.666512,326.804993 107.277359,326.939514 114.871559,326.644806 
	C115.888161,326.605347 117.603394,324.432098 117.660141,323.186157 
	C117.947250,316.882629 117.668724,310.555450 117.846970,304.243866 
	C117.933846,301.167511 116.739845,300.104004 113.779655,300.160980 
	C107.797745,300.276184 101.812027,300.193848 94.906342,300.195190 
M188.817429,357.428406 
	C194.471237,357.428284 200.132767,357.586334 205.773209,357.311707 
	C207.105881,357.246796 209.456818,355.768555 209.491226,354.869781 
	C209.788284,347.110809 209.662125,339.335663 209.662125,331.300751 
	C200.599640,331.300751 192.215683,331.300751 183.446503,331.300751 
	C183.446503,339.925934 183.446503,348.315247 183.446503,357.129730 
	C185.012054,357.234589 186.454666,357.331238 188.817429,357.428406 
M183.049469,227.362213 
	C183.063690,234.757523 183.063690,234.758240 190.190292,234.759232 
	C195.348068,234.759949 200.510010,234.633682 205.662064,234.805252 
	C208.706146,234.906662 209.807083,233.763580 209.733917,230.742126 
	C209.584946,224.589691 209.575500,218.428085 209.738892,212.276367 
	C209.817749,209.306992 208.842606,208.028076 205.769012,208.090317 
	C199.449158,208.218292 193.123383,208.211349 186.803192,208.092438 
	C183.991821,208.039566 182.945145,209.153046 183.018265,211.924698 
	C183.145462,216.746307 183.050995,221.573792 183.049469,227.362213 
M117.779343,353.992767 
	C117.778877,347.515472 117.926201,341.031830 117.646881,334.566589 
	C117.594223,333.347900 115.879539,331.218567 114.868538,331.180267 
	C107.267349,330.892609 99.650314,331.023499 91.726936,331.023499 
	C91.726936,339.952759 91.726936,348.469879 91.726936,357.424927 
	C99.662804,357.424927 107.267868,357.516876 114.864967,357.312592 
	C115.853706,357.286041 116.801430,355.733856 117.779343,353.992767 
M209.235977,264.555939 
	C209.235977,256.159088 209.235977,247.762253 209.235977,239.328186 
	C200.466370,239.328186 192.074600,239.328186 183.103058,239.328186 
	C183.103058,247.447403 183.012665,255.227936 183.236191,262.999481 
	C183.259796,263.820038 185.118805,265.256958 186.143631,265.272614 
	C193.617081,265.386658 201.094971,265.210052 209.235977,264.555939 
M114.868431,361.762909 
	C107.112862,361.762909 99.357292,361.762909 91.688843,361.762909 
	C91.688843,370.818817 91.688843,379.242004 91.688843,387.648621 
	C100.383331,387.648621 108.776390,387.648621 117.710007,387.648621 
	C117.710007,379.411194 117.752037,371.476807 117.625633,363.545105 
	C117.616104,362.947357 116.406479,362.368713 114.868431,361.762909 
M198.457657,326.809814 
	C200.620361,326.809601 202.804413,326.616089 204.941086,326.851868 
	C208.719147,327.268677 209.916687,325.714386 209.757568,322.024292 
	C209.507004,316.212402 209.551163,310.377136 209.745529,304.560944 
	C209.852722,301.353577 208.800644,300.055359 205.495483,300.148804 
	C199.344971,300.322601 193.182907,300.317078 187.032013,300.150604 
	C183.944534,300.067047 182.940125,301.287079 183.009247,304.258392 
	C183.152405,310.410461 183.170135,316.571350 183.006119,322.722351 
	C182.916565,326.080780 184.337692,327.071320 187.495316,326.858612 
	C190.807510,326.635498 194.146439,326.809418 198.457657,326.809814 
M209.372620,386.883484 
	C209.372620,378.647064 209.372620,370.410645 209.372620,362.160767 
	C200.427383,362.160767 191.906006,362.160767 183.517410,362.160767 
	C183.517410,370.953125 183.517410,379.341797 183.517410,387.628296 
	C192.263458,387.628296 200.554489,387.628296 209.372620,386.883484 
M209.491623,271.029633 
	C200.783310,270.523590 192.075012,270.017578 183.564621,269.523041 
	C183.564621,279.154205 183.564621,287.505219 183.564621,295.874359 
	C192.346069,295.874359 200.625107,295.874359 209.640564,295.874359 
	C209.640564,287.790924 209.640564,279.869720 209.491623,271.029633 
M213.942856,325.108490 
	C214.182037,325.524506 214.418503,326.302338 214.660812,326.304138 
	C223.018799,326.367004 231.377335,326.356506 239.818756,326.356506 
	C239.818756,317.538422 239.818756,309.250610 239.818756,300.716370 
	C231.133606,300.716370 222.645767,300.716370 213.864227,300.716370 
	C213.864227,308.870270 213.864227,316.521271 213.942856,325.108490 
M86.907265,319.374756 
	C86.907265,313.145477 86.907265,306.916199 86.907265,300.580841 
	C77.852760,300.580841 69.496323,300.580841 61.248478,300.580841 
	C61.248478,309.482239 61.248478,318.004700 61.248478,326.474670 
	C69.912453,326.474670 78.136848,326.474670 86.907257,326.474670 
	C86.907257,324.216431 86.907257,322.276031 86.907265,319.374756 
M240.007965,232.104401 
	C240.007965,224.329086 240.007965,216.553772 240.007965,208.529648 
	C231.070480,208.529648 222.686905,208.529648 214.162888,208.529648 
	C214.162888,217.335068 214.162888,225.745895 214.162888,234.630630 
	C222.412048,234.630630 230.361755,234.662735 238.309753,234.561646 
	C238.866013,234.554581 239.409744,233.561584 240.007965,232.104401 
M194.517365,177.902283 
	C190.784470,177.902283 187.051559,177.902283 183.544144,177.902283 
	C183.544144,187.092804 183.544144,195.450760 183.544144,203.649017 
	C192.407959,203.649017 200.785217,203.649017 209.300766,203.649017 
	C209.300766,194.915939 209.300766,186.554810 209.300766,177.902283 
	C204.453171,177.902283 199.980057,177.902283 194.517365,177.902283 
M74.490631,331.027588 
	C70.059074,331.027588 65.627518,331.027588 61.055618,331.027588 
	C61.055618,340.114166 61.055618,348.547882 61.055618,357.118469 
	C69.713760,357.118469 78.138359,357.118469 86.620346,357.118469 
	C86.620346,348.404510 86.620346,339.990326 86.620346,331.027588 
	C82.720955,331.027588 79.099068,331.027588 74.490631,331.027588 
M229.439697,357.413666 
	C232.865417,357.413666 236.291138,357.413666 239.654266,357.413666 
	C239.654266,348.278442 239.654266,339.877838 239.654266,331.418457 
	C230.936615,331.418457 222.565750,331.418457 214.213074,331.418457 
	C214.213074,340.209137 214.213074,348.605591 214.213074,357.413605 
	C219.193863,357.413605 223.829712,357.413605 229.439697,357.413666 
M121.894615,368.569580 
	C121.894615,374.978088 121.894615,381.386627 121.894615,387.684631 
	C131.145660,387.684631 139.419662,387.684631 147.980255,387.684631 
	C147.980255,379.033508 147.980255,370.646515 147.980255,362.018921 
	C139.309631,362.018921 130.903610,362.018921 121.894669,362.018921 
	C121.894669,364.030457 121.894669,365.810547 121.894615,368.569580 
M155.504333,361.776184 
	C154.580414,362.347717 152.864990,362.901855 152.851990,363.493408 
	C152.674576,371.569946 152.732544,379.651703 152.732544,387.647949 
	C161.793259,387.647949 170.191589,387.647949 178.643036,387.647949 
	C178.643036,378.934662 178.643036,370.528229 178.643036,361.777893 
	C171.101318,361.777893 163.805130,361.777893 155.504333,361.776184 
M232.440353,269.940857 
	C226.349884,269.940857 220.259415,269.940857 214.242981,269.940857 
	C214.242981,278.992371 214.242981,287.376404 214.242981,295.681030 
	C223.005646,295.681030 231.384369,295.681030 239.681137,295.681030 
	C239.681137,286.933594 239.681137,278.549896 239.681137,269.940857 
	C237.385620,269.940857 235.404816,269.940857 232.440353,269.940857 
M228.480209,238.983978 
	C223.729965,238.983978 218.979706,238.983978 214.206787,238.983978 
	C214.206787,248.135757 214.206787,256.530121 214.206787,264.983643 
	C222.914597,264.983643 231.273865,264.983643 239.664566,264.983643 
	C239.664566,256.217285 239.664566,247.840973 239.664566,238.983978 
	C236.046509,238.983978 232.757660,238.983978 228.480209,238.983978 
M231.447479,203.992111 
	C234.205460,203.992111 236.963425,203.992111 239.711075,203.992111 
	C239.711075,194.944138 239.711075,186.562607 239.711075,178.218201 
	C231.025314,178.218201 222.627106,178.218201 214.224884,178.218201 
	C214.224884,186.905670 214.224884,195.283020 214.224884,203.992111 
	C219.873840,203.992111 225.166702,203.992111 231.447479,203.992111 
M178.871567,198.360107 
	C178.871567,191.611511 178.871567,184.862930 178.871567,178.150986 
	C169.860931,178.150986 161.429749,178.150986 152.937622,178.150986 
	C152.937622,186.790787 152.937622,195.189636 152.937622,203.796753 
	C161.545792,203.796753 169.946320,203.796753 178.670914,203.796753 
	C178.742081,202.211609 178.806839,200.768997 178.871567,198.360107 
M137.487122,177.914780 
	C132.392151,177.914780 127.297188,177.914780 122.338058,177.914780 
	C122.338058,187.004730 122.338058,195.386810 122.338058,203.620605 
	C131.187744,203.620605 139.589081,203.620605 148.052200,203.620605 
	C148.052200,194.963501 148.052200,186.694870 148.052200,177.914780 
	C144.725281,177.914780 141.601578,177.914780 137.487122,177.914780 
z"/>
<path fill="#FCFCFC" opacity="1.000000" stroke="none" 
	d="
M476.677307,394.666870 
	C467.187134,394.995850 458.058105,394.995850 448.305267,394.995850 
	C448.305267,348.537689 448.305267,302.357452 448.305267,256.177246 
	C447.820618,255.982071 447.335999,255.786896 446.851349,255.591736 
	C420.673248,292.851257 394.495178,330.110779 367.821136,368.076141 
	C341.496582,331.195465 315.672424,295.015839 289.013245,257.666351 
	C289.013245,304.112244 289.013245,349.260345 289.013245,394.797211 
	C279.166748,394.797211 269.957001,394.797211 260.714661,394.797211 
	C260.714661,319.954834 260.714661,245.180634 260.714661,168.938522 
	C296.845001,220.365601 332.093506,270.537506 368.112671,321.806366 
	C404.221893,271.135193 439.965973,220.976395 475.710022,170.817596 
	C476.152863,170.954483 476.595673,171.091385 477.038483,171.228271 
	C477.038483,245.598145 477.038483,319.968018 476.677307,394.666870 
z"/>
<path fill="#F3F3F3" opacity="1.000000" stroke="none" 
	d="
M95.367111,300.194092 
	C101.812027,300.193848 107.797745,300.276184 113.779655,300.160980 
	C116.739845,300.104004 117.933846,301.167511 117.846970,304.243866 
	C117.668724,310.555450 117.947250,316.882629 117.660141,323.186157 
	C117.603394,324.432098 115.888161,326.605347 114.871559,326.644806 
	C107.277359,326.939514 99.666512,326.804993 91.380157,326.804993 
	C91.380157,318.391510 91.277420,310.461090 91.534462,302.542358 
	C91.561012,301.724365 93.730949,300.975922 95.367111,300.194092 
z"/>
<path fill="#F8F8F8" opacity="1.000000" stroke="none" 
	d="
M188.357361,357.428162 
	C186.454666,357.331238 185.012054,357.234589 183.446503,357.129730 
	C183.446503,348.315247 183.446503,339.925934 183.446503,331.300751 
	C192.215683,331.300751 200.599640,331.300751 209.662125,331.300751 
	C209.662125,339.335663 209.788284,347.110809 209.491226,354.869781 
	C209.456818,355.768555 207.105881,357.246796 205.773209,357.311707 
	C200.132767,357.586334 194.471237,357.428284 188.357361,357.428162 
z"/>
<path fill="#F4F4F4" opacity="1.000000" stroke="none" 
	d="
M183.049469,226.880508 
	C183.050995,221.573792 183.145462,216.746307 183.018265,211.924698 
	C182.945145,209.153046 183.991821,208.039566 186.803192,208.092438 
	C193.123383,208.211349 199.449158,208.218292 205.769012,208.090317 
	C208.842606,208.028076 209.817749,209.306992 209.738892,212.276367 
	C209.575500,218.428085 209.584946,224.589691 209.733917,230.742126 
	C209.807083,233.763580 208.706146,234.906662 205.662064,234.805252 
	C200.510010,234.633682 195.348068,234.759949 190.190292,234.759232 
	C183.063690,234.758240 183.063690,234.757523 183.049469,226.880508 
z"/>
<path fill="#F7F7F7" opacity="1.000000" stroke="none" 
	d="
M117.773750,354.440552 
	C116.801430,355.733856 115.853706,357.286041 114.864967,357.312592 
	C107.267868,357.516876 99.662804,357.424927 91.726936,357.424927 
	C91.726936,348.469879 91.726936,339.952759 91.726936,331.023499 
	C99.650314,331.023499 107.267349,330.892609 114.868538,331.180267 
	C115.879539,331.218567 117.594223,333.347900 117.646881,334.566589 
	C117.926201,341.031830 117.778877,347.515472 117.773750,354.440552 
z"/>
<path fill="#F9F9F9" opacity="1.000000" stroke="none" 
	d="
M208.903717,264.840576 
	C201.094971,265.210052 193.617081,265.386658 186.143631,265.272614 
	C185.118805,265.256958 183.259796,263.820038 183.236191,262.999481 
	C183.012665,255.227936 183.103058,247.447403 183.103058,239.328186 
	C192.074600,239.328186 200.466370,239.328186 209.235977,239.328186 
	C209.235977,247.762253 209.235977,256.159088 208.903717,264.840576 
z"/>
<path fill="#F7F7F7" opacity="1.000000" stroke="none" 
	d="
M115.311569,361.772034 
	C116.406479,362.368713 117.616104,362.947357 117.625633,363.545105 
	C117.752037,371.476807 117.710007,379.411194 117.710007,387.648621 
	C108.776390,387.648621 100.383331,387.648621 91.688843,387.648621 
	C91.688843,379.242004 91.688843,370.818817 91.688843,361.762909 
	C99.357292,361.762909 107.112862,361.762909 115.311569,361.772034 
z"/>
<path fill="#F4F4F4" opacity="1.000000" stroke="none" 
	d="
M197.965668,326.809814 
	C194.146439,326.809418 190.807510,326.635498 187.495316,326.858612 
	C184.337692,327.071320 182.916565,326.080780 183.006119,322.722351 
	C183.170135,316.571350 183.152405,310.410461 183.009247,304.258392 
	C182.940125,301.287079 183.944534,300.067047 187.032013,300.150604 
	C193.182907,300.317078 199.344971,300.322601 205.495483,300.148804 
	C208.800644,300.055359 209.852722,301.353577 209.745529,304.560944 
	C209.551163,310.377136 209.507004,316.212402 209.757568,322.024292 
	C209.916687,325.714386 208.719147,327.268677 204.941086,326.851868 
	C202.804413,326.616089 200.620361,326.809601 197.965668,326.809814 
z"/>
<path fill="#F9F9F9" opacity="1.000000" stroke="none" 
	d="
M209.109070,387.255890 
	C200.554489,387.628296 192.263458,387.628296 183.517410,387.628296 
	C183.517410,379.341797 183.517410,370.953125 183.517410,362.160767 
	C191.906006,362.160767 200.427383,362.160767 209.372620,362.160767 
	C209.372620,370.410645 209.372620,378.647064 209.109070,387.255890 
z"/>
<path fill="#F9F9F9" opacity="1.000000" stroke="none" 
	d="
M209.566101,271.489075 
	C209.640564,279.869720 209.640564,287.790924 209.640564,295.874359 
	C200.625107,295.874359 192.346069,295.874359 183.564621,295.874359 
	C183.564621,287.505219 183.564621,279.154205 183.564621,269.523041 
	C192.075012,270.017578 200.783310,270.523590 209.566101,271.489075 
z"/>
<path fill="#F8F8F8" opacity="1.000000" stroke="none" 
	d="
M213.903534,324.640381 
	C213.864227,316.521271 213.864227,308.870270 213.864227,300.716370 
	C222.645767,300.716370 231.133606,300.716370 239.818756,300.716370 
	C239.818756,309.250610 239.818756,317.538422 239.818756,326.356506 
	C231.377335,326.356506 223.018799,326.367004 214.660812,326.304138 
	C214.418503,326.302338 214.182037,325.524506 213.903534,324.640381 
z"/>
<path fill="#F8F8F8" opacity="1.000000" stroke="none" 
	d="
M86.907257,319.855194 
	C86.907257,322.276031 86.907257,324.216431 86.907257,326.474670 
	C78.136848,326.474670 69.912453,326.474670 61.248478,326.474670 
	C61.248478,318.004700 61.248478,309.482239 61.248478,300.580841 
	C69.496323,300.580841 77.852760,300.580841 86.907265,300.580841 
	C86.907265,306.916199 86.907265,313.145477 86.907257,319.855194 
z"/>
<path fill="#F8F8F8" opacity="1.000000" stroke="none" 
	d="
M239.983643,232.565735 
	C239.409744,233.561584 238.866013,234.554581 238.309753,234.561646 
	C230.361755,234.662735 222.412048,234.630630 214.162888,234.630630 
	C214.162888,225.745895 214.162888,217.335068 214.162888,208.529648 
	C222.686905,208.529648 231.070480,208.529648 240.007965,208.529648 
	C240.007965,216.553772 240.007965,224.329086 239.983643,232.565735 
z"/>
<path fill="#F8F8F8" opacity="1.000000" stroke="none" 
	d="
M195.012146,177.902283 
	C199.980057,177.902283 204.453171,177.902283 209.300766,177.902283 
	C209.300766,186.554810 209.300766,194.915939 209.300766,203.649017 
	C200.785217,203.649017 192.407959,203.649017 183.544144,203.649017 
	C183.544144,195.450760 183.544144,187.092804 183.544144,177.902283 
	C187.051559,177.902283 190.784470,177.902283 195.012146,177.902283 
z"/>
<path fill="#FCFCFC" opacity="1.000000" stroke="none" 
	d="
M74.983910,331.027588 
	C79.099068,331.027588 82.720955,331.027588 86.620346,331.027588 
	C86.620346,339.990326 86.620346,348.404510 86.620346,357.118469 
	C78.138359,357.118469 69.713760,357.118469 61.055618,357.118469 
	C61.055618,348.547882 61.055618,340.114166 61.055618,331.027588 
	C65.627518,331.027588 70.059074,331.027588 74.983910,331.027588 
z"/>
<path fill="#FCFCFC" opacity="1.000000" stroke="none" 
	d="
M228.952621,357.413635 
	C223.829712,357.413605 219.193863,357.413605 214.213074,357.413605 
	C214.213074,348.605591 214.213074,340.209137 214.213074,331.418457 
	C222.565750,331.418457 230.936615,331.418457 239.654266,331.418457 
	C239.654266,339.877838 239.654266,348.278442 239.654266,357.413666 
	C236.291138,357.413666 232.865417,357.413666 228.952621,357.413635 
z"/>
<path fill="#FDFDFD" opacity="1.000000" stroke="none" 
	d="
M121.894638,368.080109 
	C121.894669,365.810547 121.894669,364.030457 121.894669,362.018921 
	C130.903610,362.018921 139.309631,362.018921 147.980255,362.018921 
	C147.980255,370.646515 147.980255,379.033508 147.980255,387.684631 
	C139.419662,387.684631 131.145660,387.684631 121.894615,387.684631 
	C121.894615,381.386627 121.894615,374.978088 121.894638,368.080109 
z"/>
<path fill="#FCFCFC" opacity="1.000000" stroke="none" 
	d="
M156.006638,361.777039 
	C163.805130,361.777893 171.101318,361.777893 178.643036,361.777893 
	C178.643036,370.528229 178.643036,378.934662 178.643036,387.647949 
	C170.191589,387.647949 161.793259,387.647949 152.732544,387.647949 
	C152.732544,379.651703 152.674576,371.569946 152.851990,363.493408 
	C152.864990,362.901855 154.580414,362.347717 156.006638,361.777039 
z"/>
<path fill="#FDFDFD" opacity="1.000000" stroke="none" 
	d="
M232.932190,269.940857 
	C235.404816,269.940857 237.385620,269.940857 239.681137,269.940857 
	C239.681137,278.549896 239.681137,286.933594 239.681137,295.681030 
	C231.384369,295.681030 223.005646,295.681030 214.242981,295.681030 
	C214.242981,287.376404 214.242981,278.992371 214.242981,269.940857 
	C220.259415,269.940857 226.349884,269.940857 232.932190,269.940857 
z"/>
<path fill="#FDFDFD" opacity="1.000000" stroke="none" 
	d="
M228.974518,238.983978 
	C232.757660,238.983978 236.046509,238.983978 239.664566,238.983978 
	C239.664566,247.840973 239.664566,256.217285 239.664566,264.983643 
	C231.273865,264.983643 222.914597,264.983643 214.206787,264.983643 
	C214.206787,256.530121 214.206787,248.135757 214.206787,238.983978 
	C218.979706,238.983978 223.729965,238.983978 228.974518,238.983978 
z"/>
<path fill="#FDFDFD" opacity="1.000000" stroke="none" 
	d="
M230.953522,203.992111 
	C225.166702,203.992111 219.873840,203.992111 214.224884,203.992111 
	C214.224884,195.283020 214.224884,186.905670 214.224884,178.218201 
	C222.627106,178.218201 231.025314,178.218201 239.711075,178.218201 
	C239.711075,186.562607 239.711075,194.944138 239.711075,203.992111 
	C236.963425,203.992111 234.205460,203.992111 230.953522,203.992111 
z"/>
<path fill="#FCFCFC" opacity="1.000000" stroke="none" 
	d="
M178.871582,198.843246 
	C178.806839,200.768997 178.742081,202.211609 178.670914,203.796753 
	C169.946320,203.796753 161.545792,203.796753 152.937622,203.796753 
	C152.937622,195.189636 152.937622,186.790787 152.937622,178.150986 
	C161.429749,178.150986 169.860931,178.150986 178.871567,178.150986 
	C178.871567,184.862930 178.871567,191.611511 178.871582,198.843246 
z"/>
<path fill="#FDFDFD" opacity="1.000000" stroke="none" 
	d="
M137.982483,177.914780 
	C141.601578,177.914780 144.725281,177.914780 148.052200,177.914780 
	C148.052200,186.694870 148.052200,194.963501 148.052200,203.620605 
	C139.589081,203.620605 131.187744,203.620605 122.338058,203.620605 
	C122.338058,195.386810 122.338058,187.004730 122.338058,177.914780 
	C127.297188,177.914780 132.392151,177.914780 137.982483,177.914780 
z"/>
</svg>