<svg version="1.1" id="Layer_1" xmlns="http://www.w3.org/2000/svg" xmlns:xlink="http://www.w3.org/1999/xlink" x="0px" y="0px"
	 width="100%" viewBox="0 0 1024 1024" enable-background="new 0 0 1024 1024" xml:space="preserve">
<path fill="#000000" opacity="1.000000" stroke="none" 
	d="
M734.728149,494.674530 
	C695.748474,549.915588 656.978760,604.864563 617.423462,660.926819 
	C575.765259,602.834106 534.788025,545.691101 493.498505,488.112549 
	C490.987732,490.979004 491.399353,493.684082 491.398651,496.239777 
	C491.380402,563.068542 491.380035,629.897339 491.377838,696.726135 
	C491.377625,703.436340 491.381195,703.430542 484.564667,703.428406 
	C473.565430,703.424988 462.566132,703.413757 451.566925,703.437927 
	C444.970490,703.452393 444.941650,703.479797 444.940887,696.795593 
	C444.932678,624.300415 444.936432,551.805298 444.932281,479.310150 
	C444.929810,436.479675 444.904816,393.649200 444.950256,350.818756 
	C444.952789,348.446106 444.167877,345.826080 446.717438,343.064423 
	C503.630066,423.611603 560.376648,503.923676 617.855347,585.272034 
	C676.086060,504.005798 733.682739,423.624420 791.384033,343.097137 
	C793.825439,345.254028 793.221741,347.210571 793.222168,348.934692 
	C793.251526,465.093506 793.248169,581.252319 793.234131,697.411133 
	C793.233398,703.657043 792.908386,703.704773 786.697266,703.599243 
	C775.368591,703.406616 764.034607,703.410522 752.703918,703.487427 
	C745.681519,703.535034 745.665222,703.663208 745.664795,696.391052 
	C745.661133,627.562317 745.663696,558.733582 745.664429,489.904816 
	C745.664490,487.105469 745.664429,484.306122 745.664429,481.506775 
	C745.266052,481.310883 744.867676,481.115021 744.469238,480.919128 
	C741.292175,485.406891 738.115112,489.894623 734.728149,494.674530 
z"/>
<path fill="#000000" opacity="1.000000" stroke="none" 
	d="
M282.680511,733.224304 
	C282.450714,729.237305 284.683655,728.865417 287.478851,728.607056 
	C302.683746,727.201599 316.788879,722.691284 329.151459,713.420715 
	C346.890686,700.118286 355.662109,681.777649 358.649750,660.346985 
	C360.816345,644.805725 360.251526,629.154053 360.233826,613.496521 
	C360.145966,535.850281 360.432770,458.203735 360.546753,380.557190 
	C360.557037,373.564178 360.307159,366.569855 360.119019,359.577728 
	C360.010040,355.526947 361.421722,353.609711 365.943970,353.706055 
	C378.269226,353.968536 390.605896,353.921783 402.933502,353.720459 
	C407.169830,353.651306 408.337524,355.317566 408.332672,359.330627 
	C408.216583,455.311462 408.520782,551.294312 407.957672,647.272156 
	C407.784515,676.793701 399.823700,704.498901 381.629578,728.565674 
	C362.433533,753.957825 336.417908,767.708069 305.611877,773.286804 
	C299.565094,774.381836 293.478607,775.277344 287.287781,775.383240 
	C283.809448,775.442627 282.603119,774.114563 282.636810,770.689575 
	C282.758087,758.359863 282.677612,746.028259 282.680511,733.224304 
z"/>
</svg>