<svg version="1.1" id="Layer_1" xmlns="http://www.w3.org/2000/svg" xmlns:xlink="http://www.w3.org/1999/xlink" x="0px" y="0px"
	 width="100%" viewBox="0 0 2000 2000" enable-background="new 0 0 2000 2000" xml:space="preserve">
<path fill="#0F0F0F" opacity="1.000000" stroke="none" 
	d="
M1110.000000,2001.000000 
	C740.000000,2001.000000 370.500000,2001.000000 1.000000,2001.000000 
	C1.000000,1334.333374 1.000000,667.666687 1.000000,1.000000 
	C667.666687,1.000000 1334.333374,1.000000 2001.000000,1.000000 
	C2001.000000,667.666687 2001.000000,1334.333374 2001.000000,2001.000000 
	C1704.166626,2001.000000 1407.333374,2001.000000 1110.000000,2001.000000 
M1021.120728,981.385010 
	C1095.913696,1085.705811 1170.706665,1190.026611 1246.041260,1295.102783 
	C1335.100464,1168.966187 1423.461182,1043.818970 1511.821899,918.671753 
	C1512.169678,918.851562 1512.517456,919.031311 1512.865234,919.211060 
	C1512.865234,1074.152588 1512.865234,1229.093994 1512.865234,1384.254150 
	C1544.729614,1384.254150 1576.309570,1384.254150 1607.932983,1384.254150 
	C1607.932983,1136.082520 1607.932983,888.161743 1607.932983,639.064026 
	C1487.243896,807.562134 1367.254761,975.082825 1246.985352,1142.994995 
	C1128.246704,974.820496 1010.011169,807.358398 891.041016,638.855896 
	C891.041016,888.292053 891.041016,1136.188843 891.041016,1384.234131 
	C922.215515,1384.234131 953.132751,1384.234131 984.695679,1384.234131 
	C984.695679,1233.336304 984.695679,1082.707642 984.695679,932.079102 
	C985.013184,932.005676 985.330750,931.932251 985.648254,931.858826 
	C997.350952,948.162048 1009.053650,964.465271 1021.120728,981.385010 
M776.422302,811.500244 
	C776.422302,762.093689 776.422302,712.687134 776.422302,663.261902 
	C743.897522,663.261902 711.977722,663.261902 679.789673,663.261902 
	C679.789673,665.494324 679.789612,667.467041 679.789612,669.439758 
	C679.789673,862.079346 679.798401,1054.718994 679.779236,1247.358521 
	C679.776794,1271.402954 678.091370,1295.300293 671.960876,1318.657715 
	C655.301331,1382.131348 614.698730,1420.907837 550.789490,1435.189209 
	C540.463196,1437.496826 529.824524,1438.406372 519.264160,1439.972046 
	C519.264160,1470.913940 519.264160,1501.962769 519.264160,1533.904785 
	C534.245667,1532.233521 548.861450,1531.092407 563.316772,1528.895142 
	C601.005066,1523.166382 636.045715,1509.983276 667.415894,1488.317993 
	C728.785583,1445.933960 760.272827,1385.362305 772.014832,1313.180908 
	C776.258118,1287.096313 776.449646,1260.778076 776.441833,1234.440918 
	C776.400269,1093.794067 776.422302,953.147156 776.422302,811.500244 
z"/>
<path fill="#FEFEFE" opacity="1.000000" stroke="none" 
	d="
M1020.938538,981.076782 
	C1009.053650,964.465271 997.350952,948.162048 985.648254,931.858826 
	C985.330750,931.932251 985.013184,932.005676 984.695679,932.079102 
	C984.695679,1082.707642 984.695679,1233.336304 984.695679,1384.234131 
	C953.132751,1384.234131 922.215515,1384.234131 891.041016,1384.234131 
	C891.041016,1136.188843 891.041016,888.292053 891.041016,638.855896 
	C1010.011169,807.358398 1128.246704,974.820496 1246.985352,1142.994995 
	C1367.254761,975.082825 1487.243896,807.562134 1607.932983,639.064026 
	C1607.932983,888.161743 1607.932983,1136.082520 1607.932983,1384.254150 
	C1576.309570,1384.254150 1544.729614,1384.254150 1512.865234,1384.254150 
	C1512.865234,1229.093994 1512.865234,1074.152588 1512.865234,919.211060 
	C1512.517456,919.031311 1512.169678,918.851562 1511.821899,918.671753 
	C1423.461182,1043.818970 1335.100464,1168.966187 1246.041260,1295.102783 
	C1170.706665,1190.026611 1095.913696,1085.705811 1020.938538,981.076782 
z"/>
<path fill="#FFFFFF" opacity="1.000000" stroke="none" 
	d="
M776.422302,812.000244 
	C776.422302,953.147156 776.400269,1093.794067 776.441833,1234.440918 
	C776.449646,1260.778076 776.258118,1287.096313 772.014832,1313.180908 
	C760.272827,1385.362305 728.785583,1445.933960 667.415894,1488.317993 
	C636.045715,1509.983276 601.005066,1523.166382 563.316772,1528.895142 
	C548.861450,1531.092407 534.245667,1532.233521 519.264160,1533.904785 
	C519.264160,1501.962769 519.264160,1470.913940 519.264160,1439.972046 
	C529.824524,1438.406372 540.463196,1437.496826 550.789490,1435.189209 
	C614.698730,1420.907837 655.301331,1382.131348 671.960876,1318.657715 
	C678.091370,1295.300293 679.776794,1271.402954 679.779236,1247.358521 
	C679.798401,1054.718994 679.789673,862.079346 679.789612,669.439758 
	C679.789612,667.467041 679.789673,665.494324 679.789673,663.261902 
	C711.977722,663.261902 743.897522,663.261902 776.422302,663.261902 
	C776.422302,712.687134 776.422302,762.093689 776.422302,812.000244 
z"/>
</svg>