<svg version="1.1" id="Layer_1" xmlns="http://www.w3.org/2000/svg" xmlns:xlink="http://www.w3.org/1999/xlink" x="0px" y="0px"
	 width="100%" viewBox="0 0 1024 1024" enable-background="new 0 0 1024 1024" xml:space="preserve">
<path fill="#000000" opacity="1.000000" stroke="none" 
	d="
M245.787933,272.756226 
	C248.934708,272.653687 250.264359,273.858398 250.256226,276.608734 
	C250.219254,289.102722 250.199265,301.596954 250.237976,314.090881 
	C250.246536,316.853577 248.930405,318.042694 246.297836,318.045441 
	C233.970337,318.058350 221.642792,318.054382 209.315399,318.095154 
	C206.430145,318.104706 204.996796,316.809387 205.001129,313.889954 
	C205.019119,301.729095 205.054779,289.568054 204.994186,277.407532 
	C204.975418,273.641907 206.865341,272.643280 210.328354,272.683563 
	C221.988235,272.819183 233.650558,272.744293 245.787933,272.756226 
z"/>
<path fill="#000000" opacity="1.000000" stroke="none" 
	d="
M617.567139,368.615845 
	C615.370911,367.112701 615.787415,365.154663 615.781860,363.384949 
	C615.746338,352.076385 615.914673,340.764801 615.697449,329.460388 
	C615.616943,325.270538 617.212708,323.884308 621.225830,323.934082 
	C632.532776,324.074310 643.844055,324.085602 655.150574,323.927063 
	C659.332520,323.868439 661.165161,325.234375 661.084045,329.673401 
	C660.877686,340.978210 660.977478,352.289673 661.048096,363.597870 
	C661.068665,366.894073 660.262268,369.072266 656.378784,369.031219 
	C643.581177,368.895935 630.782532,368.867493 617.567139,368.615845 
z"/>
<path fill="#000000" opacity="1.000000" stroke="none" 
	d="
M763.283569,289.003571 
	C763.273804,297.156250 763.122131,304.813477 763.315857,312.461914 
	C763.416199,316.422485 762.198608,318.203766 757.954102,318.135529 
	C746.476746,317.951019 734.992676,317.965027 723.514893,318.140900 
	C719.332214,318.204987 717.960083,316.453278 718.009338,312.483826 
	C718.149658,301.171509 718.155518,289.855804 718.046509,278.543060 
	C718.007080,274.454041 719.243530,272.552643 723.779541,272.660889 
	C735.087097,272.930664 746.409363,272.919128 757.717651,272.664978 
	C762.212708,272.563934 763.663940,274.293091 763.351440,278.525024 
	C763.106934,281.835083 763.291199,285.176819 763.283569,289.003571 
z"/>
<path fill="#000000" opacity="1.000000" stroke="none" 
	d="
M666.948608,301.993347 
	C666.952271,293.681610 667.040283,285.867493 666.924622,278.056366 
	C666.870605,274.409882 667.938843,272.586761 672.036621,272.658813 
	C683.669434,272.863342 695.309814,272.860474 706.943176,272.678131 
	C710.949341,272.615387 712.200500,274.301636 712.166565,278.011383 
	C712.060120,289.646576 712.026794,301.283875 712.136047,312.918762 
	C712.172791,316.828308 710.492981,318.163055 706.726624,318.125702 
	C695.257935,318.011932 683.785522,318.002258 672.318054,318.179230 
	C668.103577,318.244232 666.692993,316.415009 666.911011,312.464142 
	C667.093933,309.149536 666.949158,305.816864 666.948608,301.993347 
z"/>
<path fill="#000000" opacity="1.000000" stroke="none" 
	d="
M634.001282,625.165161 
	C629.012329,625.161560 624.522400,625.111023 620.033875,625.170410 
	C617.123840,625.208862 615.777893,623.918152 615.788269,620.978882 
	C615.831909,608.674866 615.848145,596.370483 615.798218,584.066589 
	C615.786377,581.150330 616.972656,579.807495 619.943604,579.821655 
	C632.081299,579.879578 644.219543,579.899841 656.357178,579.844177 
	C659.480286,579.829834 660.984436,581.149353 660.981750,584.275330 
	C660.971497,596.412842 660.957214,608.550537 661.004700,620.687866 
	C661.018494,624.211182 659.166321,625.223206 655.949707,625.176697 
	C648.801514,625.073364 641.650635,625.157227 634.001282,625.165161 
z"/>
<path fill="#000000" opacity="1.000000" stroke="none" 
	d="
M246.663422,579.896362 
	C249.752350,580.218201 250.205582,582.053101 250.204697,584.229004 
	C250.199677,596.372864 250.156982,608.516907 250.227722,620.660339 
	C250.246475,623.879517 248.796097,625.114563 245.694229,625.104126 
	C233.716827,625.063904 221.738708,625.056519 209.761841,625.156250 
	C206.284592,625.185242 205.035065,623.561462 205.055023,620.290344 
	C205.126053,608.645996 205.160950,597.001038 205.111847,585.356689 
	C205.095261,581.423950 206.619400,579.724915 210.766739,579.792297 
	C222.574890,579.984192 234.388168,579.862122 246.663422,579.896362 
z"/>
<path fill="#000000" opacity="1.000000" stroke="none" 
	d="
M123.000862,573.899536 
	C117.515182,573.886841 112.529106,573.846313 107.543396,573.873169 
	C104.355286,573.890320 102.677185,572.752258 102.719833,569.187378 
	C102.862984,557.222534 102.839355,545.254822 102.767555,533.288879 
	C102.748245,530.070923 104.160805,528.831848 107.269302,528.847046 
	C119.401588,528.906128 131.534393,528.905640 143.666794,528.863831 
	C146.597839,528.853760 147.966827,530.229065 147.969650,533.071167 
	C147.981903,545.369202 147.961533,557.667236 147.995468,569.965149 
	C148.004227,573.135620 146.076218,573.848511 143.444275,573.852051 
	C136.796387,573.860901 130.148514,573.883301 123.000862,573.899536 
z"/>
<path fill="#000000" opacity="1.000000" stroke="none" 
	d="
M190.865723,579.847046 
	C199.007111,579.907166 199.066788,579.973450 199.063095,587.710693 
	C199.057999,598.350220 198.967102,608.991089 199.110504,619.628662 
	C199.164886,623.663269 197.659439,625.272461 193.544098,625.211487 
	C182.242020,625.044067 170.934189,625.054504 159.631958,625.219971 
	C155.658997,625.278198 153.860840,623.993896 153.917679,619.806396 
	C154.073288,608.337646 154.072144,596.864319 153.933655,585.395264 
	C153.880814,581.019653 155.731598,579.667908 159.962891,579.765381 
	C170.098495,579.998901 180.243011,579.845093 190.865723,579.847046 
z"/>
<path fill="#000000" opacity="1.000000" stroke="none" 
	d="
M431.000793,579.875977 
	C437.831665,579.876343 444.165619,579.993225 450.492706,579.835205 
	C454.470917,579.735840 456.273499,581.226562 456.232758,585.360901 
	C456.119507,596.855286 456.133942,608.352844 456.284058,619.846802 
	C456.335022,623.747742 454.707764,625.185547 450.923859,625.153992 
	C439.262299,625.056702 427.598633,625.057983 415.937317,625.174805 
	C412.181854,625.212402 410.998779,623.464294 411.024567,619.981689 
	C411.109619,608.486511 411.155762,596.988953 411.002289,585.495117 
	C410.943848,581.118835 412.755981,579.573853 417.009125,579.819458 
	C421.492523,580.078247 426.002563,579.876709 431.000793,579.875977 
z"/>
<path fill="#000000" opacity="1.000000" stroke="none" 
	d="
M694.995850,625.156250 
	C687.003296,625.156799 679.507935,625.063721 672.016663,625.197388 
	C668.355164,625.262695 666.945923,623.684998 666.978210,620.118408 
	C667.083496,608.462341 667.111145,596.804810 667.050293,585.148560 
	C667.030762,581.409302 668.429199,579.748901 672.361877,579.801697 
	C683.850098,579.956116 695.342285,579.918823 706.831726,579.817749 
	C710.349060,579.786743 712.091858,581.064087 712.075867,584.732910 
	C712.024353,596.555847 712.026550,608.379578 712.117920,620.202209 
	C712.146057,623.834290 710.577087,625.316650 706.983765,625.176208 
	C703.159668,625.026672 699.324890,625.151062 694.995850,625.156250 
z"/>
<path fill="#000000" opacity="1.000000" stroke="none" 
	d="
M456.204407,348.999084 
	C456.215210,354.330627 456.120544,359.165588 456.269623,363.993073 
	C456.372559,367.326294 455.065247,368.965332 451.657867,368.962769 
	C439.661774,368.953705 427.665527,368.966553 415.669739,369.040436 
	C412.212311,369.061737 410.994965,367.357666 411.015778,364.082733 
	C411.089966,352.420135 411.106598,340.756439 411.030182,329.093933 
	C411.006805,325.523163 412.465515,323.968384 416.083496,323.995575 
	C427.745880,324.083191 439.409760,324.084991 451.072144,323.996063 
	C454.980530,323.966278 456.340729,325.750183 456.242767,329.506165 
	C456.077789,335.833252 456.200989,342.167877 456.204407,348.999084 
z"/>
<path fill="#000000" opacity="1.000000" stroke="none" 
	d="
M711.837158,366.427917 
	C710.860229,369.033600 708.913757,368.967804 707.100525,368.976013 
	C695.441040,369.028687 683.780579,368.961456 672.122192,369.093994 
	C668.167480,369.138947 666.902100,367.339691 666.945068,363.608246 
	C667.075500,352.283203 667.098450,340.954926 666.972473,329.630005 
	C666.928223,325.648285 668.337952,323.875519 672.485779,323.929749 
	C683.976868,324.079926 695.471375,324.039276 706.963928,323.973572 
	C710.501709,323.953369 712.118896,325.363190 712.081421,329.016205 
	C711.955017,341.339447 711.973328,353.664215 711.837158,366.427917 
z"/>
<path fill="#000000" opacity="1.000000" stroke="none" 
	d="
M871.701660,347.999817 
	C871.706177,341.183990 871.815369,334.865723 871.672119,328.553223 
	C871.599670,325.359528 872.898743,323.979523 876.033264,323.987274 
	C888.166016,324.017334 900.298950,324.024048 912.431702,323.981323 
	C915.559814,323.970337 916.958252,325.356842 916.935120,328.500946 
	C916.849548,340.133759 916.789978,351.767334 916.838257,363.400177 
	C916.855225,367.493835 915.463623,369.258026 910.981201,369.138672 
	C899.853394,368.842346 888.709045,368.908081 877.577637,369.137024 
	C872.949829,369.232147 871.370239,367.448486 871.642944,362.955811 
	C871.934448,358.153625 871.704407,353.319794 871.701660,347.999817 
z"/>
<path fill="#000000" opacity="1.000000" stroke="none" 
	d="
M907.875916,573.889893 
	C897.406921,573.888123 887.417664,573.805115 877.430786,573.924438 
	C873.263855,573.974243 871.528320,572.507812 871.630127,568.072021 
	C871.889709,556.757812 871.834656,545.432068 871.661621,534.114685 
	C871.602722,530.259399 872.912109,528.757385 876.833862,528.810974 
	C888.318237,528.967957 899.808960,529.008545 911.291504,528.794495 
	C915.836182,528.709839 916.992615,530.746338 916.933105,534.832092 
	C916.785217,544.978027 916.915527,555.127747 916.900574,565.275940 
	C916.888000,573.839355 916.867188,573.839294 907.875916,573.889893 
z"/>
<path fill="#000000" opacity="1.000000" stroke="none" 
	d="
M661.013367,542.025818 
	C661.017273,551.004028 660.877380,559.490967 661.085571,567.969299 
	C661.188599,572.166626 659.824097,574.018921 655.396179,573.930359 
	C644.089722,573.704224 632.777100,573.735535 621.467163,573.766113 
	C617.361328,573.777161 615.575134,572.296448 615.689270,567.846191 
	C615.970459,556.874573 615.949463,545.887573 615.711426,534.914124 
	C615.613953,530.425049 616.999084,528.674683 621.671204,528.784668 
	C632.643738,529.042908 643.630127,529.021667 654.603638,528.781128 
	C659.277649,528.678711 661.503845,530.175354 661.043518,535.046814 
	C660.841003,537.190063 661.011841,539.368530 661.013367,542.025818 
z"/>
<path fill="#000000" opacity="1.000000" stroke="none" 
	d="
M153.965332,548.001587 
	C153.969086,543.003235 154.031509,538.503357 153.955856,534.005798 
	C153.897583,530.540222 155.217865,528.802368 158.944183,528.837585 
	C170.606934,528.947815 182.271851,528.935120 193.934906,528.842773 
	C197.468033,528.814819 199.145020,530.130249 199.116211,533.807800 
	C199.023483,545.637390 199.022293,557.468262 199.088287,569.298096 
	C199.105957,572.466309 197.755981,573.878784 194.623993,573.860596 
	C182.795364,573.791809 170.965988,573.692505 159.137955,573.769409 
	C154.983566,573.796448 153.692764,571.997620 153.862152,567.993408 
	C154.136597,561.506165 153.954132,554.999512 153.965332,548.001587 
z"/>
<path fill="#000000" opacity="1.000000" stroke="none" 
	d="
M695.962097,573.874146 
	C687.313354,573.767029 679.157043,573.578125 671.001160,573.594788 
	C667.968201,573.600952 666.910095,572.377869 666.938110,569.417786 
	C667.050171,557.594604 667.061768,545.769836 667.009583,533.946106 
	C666.994141,530.440125 668.299255,528.788330 672.008301,528.826538 
	C683.664795,528.946777 695.323975,528.945374 706.980652,528.837036 
	C710.640808,528.803040 712.082153,530.394409 712.065369,533.919861 
	C712.008911,545.743591 711.995544,557.567993 712.066223,569.391602 
	C712.083801,572.342529 710.870789,573.639587 707.935608,573.636108 
	C704.108704,573.631531 700.281677,573.787231 695.962097,573.874146 
z"/>
<path fill="#000000" opacity="1.000000" stroke="none" 
	d="
M916.451050,598.052246 
	C916.586487,605.808472 916.714844,613.127991 916.860168,620.447266 
	C916.924927,623.708435 915.586182,625.247742 912.092102,625.211670 
	C900.273376,625.089417 888.451843,625.099731 876.632996,625.220825 
	C872.959839,625.258484 871.637634,623.760559 871.675049,620.156921 
	C871.797852,608.338257 871.814087,596.516357 871.670776,584.698181 
	C871.625244,580.946167 873.200989,579.755737 876.746094,579.791016 
	C888.398499,579.907227 900.053589,579.926208 911.705627,579.798096 
	C915.638062,579.754822 917.044739,581.189392 916.663696,585.168213 
	C916.269348,589.286316 916.495972,593.463867 916.451050,598.052246 
z"/>
<path fill="#000000" opacity="1.000000" stroke="none" 
	d="
M667.084961,394.001831 
	C667.088623,388.848816 667.135071,384.194672 667.077637,379.541840 
	C667.041870,376.644592 668.189270,375.607819 671.239197,375.476990 
	C683.201538,374.963806 695.159973,375.224487 707.120483,375.192047 
	C710.387695,375.183197 712.052368,376.397339 712.036499,379.846191 
	C711.981506,391.812347 711.984741,403.779266 712.059509,415.745300 
	C712.081360,419.240540 710.416321,420.311676 707.124146,420.281433 
	C695.490845,420.174622 683.854614,420.146912 672.222351,420.299957 
	C668.283875,420.351746 666.895874,418.694458 666.977539,414.943054 
	C667.125732,408.131592 667.060181,401.315460 667.084961,394.001831 
z"/>
<path fill="#000000" opacity="1.000000" stroke="none" 
	d="
M876.815857,375.543274 
	C888.348267,375.389923 899.504517,375.347198 910.652832,375.026886 
	C915.414551,374.890015 917.074768,376.763123 916.957764,381.506042 
	C916.695190,392.147583 916.970520,402.801239 916.833496,413.447479 
	C916.748474,420.048187 916.414124,420.248016 910.066162,420.258728 
	C899.240723,420.277039 888.412964,420.129425 877.591003,420.321106 
	C873.420105,420.394958 871.562195,419.204529 871.638672,414.691223 
	C871.855408,401.894073 871.714661,389.090881 871.714661,376.685608 
	C873.425110,375.107086 874.990540,375.662964 876.815857,375.543274 
z"/>
<path fill="#000000" opacity="1.000000" stroke="none" 
	d="
M456.031494,531.430908 
	C456.161652,544.014343 456.112915,556.148254 456.284973,568.279053 
	C456.339539,572.124451 454.906006,573.322327 451.046722,573.523987 
	C439.077911,574.149353 427.131836,573.481018 415.177643,573.519592 
	C411.747253,573.530640 410.950470,572.069580 410.980530,569.018127 
	C411.093414,557.549988 411.147400,546.079224 411.014435,534.611938 
	C410.964935,530.342834 412.588562,528.735046 416.909485,528.812866 
	C428.208649,529.016541 439.514008,528.865845 450.816803,528.889893 
	C452.773956,528.894043 454.922424,528.595276 456.031494,531.430908 
z"/>
<path fill="#000000" opacity="1.000000" stroke="none" 
	d="
M395.827271,318.079041 
	C385.189972,318.081482 375.027313,317.948151 364.871368,318.151306 
	C360.501556,318.238678 358.566833,317.022827 358.693146,312.222565 
	C358.990967,300.904633 358.895050,289.571808 358.725311,278.248535 
	C358.664551,274.195740 360.050018,272.624939 364.223114,272.697571 
	C375.711975,272.897552 387.208496,272.876465 398.698029,272.693787 
	C402.464569,272.633942 403.648743,274.074615 403.595032,277.676880 
	C403.428864,288.822754 403.544006,299.972473 403.435242,311.119568 
	C403.367737,318.034851 403.274353,318.033936 395.827271,318.079041 
z"/>
<path fill="#000000" opacity="1.000000" stroke="none" 
	d="
M652.910156,420.279053 
	C641.934143,420.271637 631.442200,420.145325 620.954956,420.315033 
	C617.004028,420.378967 615.675903,418.802368 615.724304,415.001404 
	C615.870483,403.514008 615.842407,392.023743 615.794434,380.534912 
	C615.781433,377.408417 616.539795,375.535431 620.238159,375.532684 
	C631.722290,375.524200 643.208801,375.377563 654.688904,375.074524 
	C659.372559,374.950836 661.194580,376.703552 661.078918,381.504730 
	C660.830383,391.821808 661.028687,402.149689 661.046631,412.473145 
	C661.060120,420.222504 661.061951,420.222504 652.910156,420.279053 
z"/>
<path fill="#000000" opacity="1.000000" stroke="none" 
	d="
M153.959839,505.995972 
	C153.957352,498.017670 154.081924,490.535187 153.903793,483.059967 
	C153.806061,478.959167 155.426682,477.545013 159.507217,477.617065 
	C170.972198,477.819519 182.444580,477.803406 193.910583,477.636047 
	C197.868500,477.578308 199.179443,479.192505 199.137054,482.958679 
	C199.009842,494.259491 198.990112,505.563416 199.114868,516.864075 
	C199.158066,520.777649 197.975800,522.539368 193.697983,522.495117 
	C183.068710,522.385193 172.435394,522.764160 161.802994,522.826965 
	C154.261932,522.871460 153.941513,522.464050 153.948303,514.971619 
	C153.950867,512.146057 153.956421,509.320465 153.959839,505.995972 
z"/>
<path fill="#000000" opacity="1.000000" stroke="none" 
	d="
M403.424530,542.766113 
	C403.429352,551.888000 403.288849,560.549072 403.512360,569.200806 
	C403.595459,572.417542 402.609924,573.851501 399.384888,573.820862 
	C387.558289,573.708374 375.731079,573.581848 363.904358,573.603149 
	C360.096527,573.609985 358.658691,572.158081 358.733795,568.242432 
	C358.947968,557.081299 359.004150,545.909424 358.746796,534.750427 
	C358.637573,530.014648 360.544098,528.713379 364.947449,528.799866 
	C375.608673,529.009216 386.282959,529.091309 396.939087,528.781128 
	C401.939178,528.635559 404.083435,530.196838 403.466278,535.308289 
	C403.188660,537.607544 403.422119,539.968628 403.424530,542.766113 
z"/>
<path fill="#000000" opacity="1.000000" stroke="none" 
	d="
M668.954468,522.311646 
	C666.535278,521.111084 666.985657,519.125671 666.984741,517.357971 
	C666.979004,506.038452 667.140076,494.717224 666.983093,483.400238 
	C666.924255,479.157257 668.311035,477.517273 672.741028,477.617706 
	C684.055054,477.874207 695.380554,477.818878 706.697632,477.643616 
	C710.550110,477.584015 712.122009,478.947418 712.085388,482.817230 
	C711.976562,494.302368 711.965393,505.790161 712.095947,517.274841 
	C712.139893,521.135376 710.671326,522.526550 706.783752,522.469482 
	C694.302490,522.286316 681.817139,522.386658 668.954468,522.311646 
z"/>
<path fill="#000000" opacity="1.000000" stroke="none" 
	d="
M841.000366,625.169800 
	C835.500854,625.161072 830.499695,625.072754 825.502197,625.171997 
	C822.225098,625.237061 820.621948,624.108704 820.660339,620.544983 
	C820.789856,608.547241 820.786255,596.546692 820.677124,584.548645 
	C820.645813,581.098755 822.019531,579.797791 825.415405,579.825378 
	C837.247009,579.921448 849.080078,579.898071 860.912170,579.837036 
	C864.007141,579.821106 865.439819,580.952209 865.412476,584.239075 
	C865.311218,596.402222 865.317383,608.567322 865.427185,620.730469 
	C865.456360,623.962708 864.175720,625.225830 860.998169,625.178223 
	C854.500244,625.080933 847.999695,625.162109 841.000366,625.169800 
z"/>
<path fill="#000000" opacity="1.000000" stroke="none" 
	d="
M820.700439,289.003174 
	C820.700195,284.677307 820.779480,280.848480 820.675537,277.024597 
	C820.596924,274.132599 821.714844,272.725494 824.731934,272.737366 
	C837.043823,272.785797 849.356323,272.793610 861.667847,272.713287 
	C864.451843,272.695129 865.477478,273.772675 865.458008,276.552368 
	C865.369385,289.196503 865.379272,301.841797 865.446594,314.486176 
	C865.460327,317.057770 864.380920,318.113617 861.896362,318.108032 
	C849.584351,318.080231 837.272339,318.063812 824.960449,318.094666 
	C821.754761,318.102722 820.607666,316.587341 820.655579,313.460510 
	C820.778015,305.476074 820.699463,297.488556 820.700439,289.003174 
z"/>
<path fill="#000000" opacity="1.000000" stroke="none" 
	d="
M821.135437,367.472046 
	C820.860352,354.073547 820.818848,341.088257 820.696533,328.103699 
	C820.670715,325.357910 821.939514,324.077881 824.567078,324.071075 
	C836.890259,324.039062 849.213379,324.037354 861.536560,324.025085 
	C864.204895,324.022430 865.405396,325.269257 865.392212,328.020569 
	C865.333191,340.343872 865.369019,352.667664 865.387451,364.991272 
	C865.390442,367.011871 864.971252,368.823059 862.544922,368.851624 
	C849.236938,369.008331 835.925293,369.454254 822.624390,368.607635 
	C822.182800,368.579529 821.767700,368.135620 821.135437,367.472046 
z"/>
<path fill="#000000" opacity="1.000000" stroke="none" 
	d="
M403.439575,352.361328 
	C403.426636,356.486603 403.203613,360.165619 403.459839,363.810913 
	C403.743256,367.843414 401.916138,369.048431 398.185669,369.017242 
	C386.694489,368.921082 375.201324,368.954987 363.709961,369.053284 
	C360.117096,369.084015 358.680145,367.665894 358.730774,363.986694 
	C358.888947,352.496582 358.912476,341.001709 358.756012,329.511810 
	C358.699127,325.334686 360.494202,323.935608 364.437805,323.972015 
	C375.595795,324.075073 386.756836,324.089996 397.913849,323.935547 
	C401.908447,323.880249 403.611786,325.195312 403.471161,329.420258 
	C403.222015,336.905609 403.426300,344.406067 403.439575,352.361328 
z"/>
<path fill="#000000" opacity="1.000000" stroke="none" 
	d="
M349.580444,324.185364 
	C352.147858,324.751801 352.322662,326.382721 352.322601,328.125763 
	C352.322144,340.262634 352.253937,352.400208 352.372742,364.535919 
	C352.405090,367.839539 350.904663,368.991974 347.883423,368.986206 
	C335.913055,368.963257 323.942535,368.951691 311.972198,368.981842 
	C308.762085,368.989929 307.642853,367.418030 307.665314,364.326019 
	C307.751038,352.522247 307.809692,340.715851 307.636444,328.914001 
	C307.580261,325.088867 309.284607,323.978943 312.720001,324.003540 
	C324.855347,324.090393 336.991394,324.078491 349.580444,324.185364 
z"/>
<path fill="#000000" opacity="1.000000" stroke="none" 
	d="
M627.026794,477.695312 
	C637.009399,477.693451 646.497620,477.802643 655.980957,477.634705 
	C659.653870,477.569672 661.061462,478.990509 661.034180,482.593811 
	C660.945984,494.242706 660.957214,505.893097 661.043823,517.542053 
	C661.070557,521.135559 659.647705,522.525513 655.974548,522.473816 
	C644.160645,522.307739 632.342468,522.334045 620.527222,522.435364 
	C617.149353,522.464355 615.714600,521.223389 615.745972,517.774597 
	C615.853455,505.959351 615.868896,494.142059 615.770752,482.326782 
	C615.742065,478.868164 617.152588,477.465088 620.540771,477.687805 
	C622.528931,477.818481 624.533325,477.701324 627.026794,477.695312 
z"/>
<path fill="#000000" opacity="1.000000" stroke="none" 
	d="
M352.346893,615.945984 
	C352.346588,617.103149 352.348816,617.768372 352.343933,618.433533 
	C352.295013,625.084167 352.294769,625.114502 345.715515,625.126099 
	C335.072540,625.144897 324.427063,624.985168 313.787628,625.177124 
	C309.415558,625.255981 307.479492,623.996277 307.596680,619.244812 
	C307.875458,607.943298 307.834412,596.628235 307.637329,585.323608 
	C307.564880,581.169189 309.102264,579.757385 313.163574,579.820007 
	C324.302856,579.991943 335.448547,580.007019 346.587280,579.819641 
	C350.808075,579.748596 352.547363,581.043579 352.427094,585.522766 
	C352.159363,595.493408 352.345184,605.476135 352.346893,615.945984 
z"/>
<path fill="#000000" opacity="1.000000" stroke="none" 
	d="
M411.129974,481.371399 
	C411.365967,478.326355 412.994568,477.710266 415.289490,477.716370 
	C427.439148,477.748718 439.589325,477.767639 451.738556,477.681671 
	C454.940369,477.659027 456.230347,479.037994 456.219116,482.165100 
	C456.176025,494.148193 456.162323,506.132080 456.263702,518.114624 
	C456.291443,521.396118 454.857758,522.456055 451.732391,522.431152 
	C439.749756,522.335693 427.764465,522.288757 415.783325,522.452576 
	C411.894226,522.505737 410.968872,520.691589 410.999664,517.280396 
	C411.106262,505.464447 411.070312,493.647217 411.129974,481.371399 
z"/>
<path fill="#000000" opacity="1.000000" stroke="none" 
	d="
M772.387817,317.887756 
	C769.238892,317.085693 769.669678,314.837341 769.663696,312.920746 
	C769.626770,301.109650 769.726196,289.297638 769.609619,277.487610 
	C769.576355,274.118805 770.715698,272.690613 774.210022,272.724701 
	C786.186401,272.841553 798.164978,272.803497 810.142090,272.733826 
	C813.057068,272.716888 814.366882,273.803558 814.346985,276.832581 
	C814.266174,289.142303 814.226807,301.453705 814.357361,313.762543 
	C814.397827,317.579590 812.283752,318.105804 809.275452,318.087585 
	C797.132507,318.013947 784.989197,317.996552 772.387817,317.887756 
z"/>
<path fill="#000000" opacity="1.000000" stroke="none" 
	d="
M609.379578,293.000427 
	C609.383911,299.987854 609.258240,306.479034 609.441589,312.961487 
	C609.540955,316.473755 608.473999,318.185730 604.685425,318.142883 
	C592.876099,318.009277 581.064392,318.024445 569.254028,318.079102 
	C565.817200,318.095001 564.621643,316.577911 564.655090,313.213165 
	C564.772461,301.403625 564.780884,289.591064 564.636841,277.782043 
	C564.593201,274.205444 565.752502,272.667633 569.493164,272.710876 
	C581.135925,272.845367 592.783447,272.875916 604.424561,272.677551 
	C608.486938,272.608337 609.620605,274.284912 609.445679,278.030762 
	C609.220886,282.844574 609.382935,287.676453 609.379578,293.000427 
z"/>
<path fill="#000000" opacity="1.000000" stroke="none" 
	d="
M552.800659,318.055023 
	C541.323120,318.045990 530.321655,317.898987 519.326050,318.087555 
	C515.004333,318.161652 513.470337,316.655945 513.561340,312.278595 
	C513.800232,300.784454 513.738159,289.280884 513.591248,277.783691 
	C513.545410,274.193268 514.692139,272.680573 518.445801,272.727661 
	C530.109680,272.873993 541.777771,272.868561 553.441650,272.719025 
	C557.124573,272.671814 558.427856,274.038086 558.380188,277.696075 
	C558.225769,289.526520 558.204590,301.361542 558.365051,313.191650 
	C558.416809,317.006500 556.768311,318.307861 552.800659,318.055023 
z"/>
<path fill="#000000" opacity="1.000000" stroke="none" 
	d="
M256.642151,613.972534 
	C256.641174,603.997803 256.768677,594.516663 256.578369,585.041931 
	C256.499634,581.121460 257.989868,579.761597 261.833099,579.810913 
	C273.305206,579.958313 284.781006,579.923828 296.254120,579.820007 
	C299.813507,579.787842 301.353912,581.089966 301.314453,584.787354 
	C301.188568,596.592590 301.171143,608.401428 301.335144,620.205811 
	C301.387421,623.967957 299.839081,625.148743 296.301178,625.117249 
	C285.160797,625.018005 274.014557,624.927185 262.879333,625.195374 
	C258.166107,625.308838 255.995300,623.824219 256.610199,618.955017 
	C256.796265,617.481689 256.641296,615.965393 256.642151,613.972534 
z"/>
<path fill="#000000" opacity="1.000000" stroke="none" 
	d="
M273.002991,272.743530 
	C281.149017,272.751556 288.798553,272.883362 296.441498,272.714844 
	C300.133148,272.633484 301.399780,274.074707 301.354553,277.701141 
	C301.205322,289.668335 301.206329,301.639160 301.328003,313.606812 
	C301.361511,316.903564 299.952789,318.064209 296.886871,318.055206 
	C284.918091,318.020081 272.949036,318.011536 260.980408,318.067047 
	C257.814758,318.081726 256.579132,316.732300 256.606384,313.546600 
	C256.710266,301.412323 256.708374,289.276154 256.609070,277.141815 
	C256.582703,273.924805 257.857361,272.633026 261.034546,272.736877 
	C264.853638,272.861725 268.680389,272.752014 273.002991,272.743530 
z"/>
<path fill="#000000" opacity="1.000000" stroke="none" 
	d="
M500.835632,625.109070 
	C489.525024,625.118835 478.691345,625.036072 467.860809,625.183960 
	C464.054077,625.235901 462.515991,623.935120 462.580322,619.964783 
	C462.769287,608.302124 462.770111,596.632629 462.588623,584.969788 
	C462.526245,580.962585 464.135529,579.764893 467.920258,579.818237 
	C478.917236,579.973145 489.921661,580.050537 500.914948,579.798889 
	C505.633545,579.690796 507.476257,581.232361 507.365356,586.076294 
	C507.113495,597.069763 507.109955,608.076172 507.344727,619.070068 
	C507.441742,623.612549 505.915924,625.677429 500.835632,625.109070 
z"/>
<path fill="#000000" opacity="1.000000" stroke="none" 
	d="
M124.000244,477.681030 
	C130.831360,477.686981 137.164719,477.795197 143.492706,477.656738 
	C146.745529,477.585571 148.019272,479.039581 148.014313,482.111206 
	C147.994934,494.106781 147.978394,506.102539 148.029922,518.097961 
	C148.043686,521.303284 146.591034,522.468323 143.443405,522.443481 
	C131.448318,522.348816 119.451324,522.340759 107.456566,522.457031 
	C104.041725,522.490112 102.696190,521.216431 102.731155,517.771484 
	C102.851189,505.943359 102.860123,494.112762 102.750137,482.284607 
	C102.717819,478.810028 104.108543,477.541077 107.507103,477.643921 
	C112.833656,477.805084 118.168785,477.683167 124.000244,477.681030 
z"/>
<path fill="#000000" opacity="1.000000" stroke="none" 
	d="
M456.207947,447.000336 
	C456.217041,453.652802 456.127228,459.807770 456.272430,465.957184 
	C456.358673,469.610748 455.262207,471.442627 451.179962,471.381012 
	C439.376282,471.202789 427.567383,471.262543 415.761902,471.373077 
	C412.392090,471.404602 410.939117,470.162781 410.973236,466.716492 
	C411.090088,454.911041 411.098663,443.103943 411.053406,431.297791 
	C411.040619,427.960663 412.317230,426.573395 415.796387,426.615509 
	C427.767395,426.760376 439.741669,426.731995 451.713715,426.642334 
	C454.884308,426.618561 456.274658,427.847107 456.218719,431.036438 
	C456.128326,436.189606 456.203003,441.345642 456.207947,447.000336 
z"/>
<path fill="#000000" opacity="1.000000" stroke="none" 
	d="
M337.992523,272.753052 
	C352.369537,272.766205 352.368713,272.766205 352.357635,286.635223 
	C352.350555,295.453156 352.226074,304.273407 352.399078,313.087860 
	C352.469818,316.693787 351.282745,318.184753 347.553680,318.138245 
	C335.909149,317.993042 324.261383,318.017761 312.615784,318.104492 
	C309.054688,318.131012 307.570557,316.818329 307.619141,313.106903 
	C307.773743,301.296265 307.774170,289.480988 307.618134,277.670349 
	C307.569702,274.006805 308.869629,272.627380 312.539001,272.700195 
	C320.854553,272.865143 329.175568,272.752625 337.992523,272.753052 
z"/>
<path fill="#000000" opacity="1.000000" stroke="none" 
	d="
M659.507019,427.098145 
	C660.841980,428.394867 661.002686,429.714935 661.004517,431.060516 
	C661.020630,442.884766 660.967468,454.709503 661.064941,466.533020 
	C661.095337,470.219788 659.487610,471.438751 655.906494,471.394501 
	C644.250366,471.250427 632.589844,471.230286 620.934387,471.398682 
	C616.985107,471.455750 615.675842,469.912506 615.727051,466.092255 
	C615.880981,454.602905 615.842041,443.110046 615.770508,431.619232 
	C615.751099,428.503021 616.392944,426.551117 620.138916,426.607666 
	C633.122437,426.803558 646.108765,426.811523 659.507019,427.098145 
z"/>
<path fill="#000000" opacity="1.000000" stroke="none" 
	d="
M712.079468,435.088898 
	C712.072937,445.731354 711.994751,455.888428 712.104370,466.043488 
	C712.144409,469.760010 710.932068,471.452606 706.908447,471.389252 
	C695.256592,471.205658 683.598816,471.248718 671.945618,471.391541 
	C668.290527,471.436371 666.885254,470.053925 666.929138,466.412933 
	C667.069580,454.759705 667.097839,443.103546 667.002502,431.449890 
	C666.972229,427.742493 668.501587,426.547791 672.101929,426.603027 
	C682.755371,426.766510 693.412842,426.662598 704.068726,426.667725 
	C711.977417,426.671539 711.977417,426.674622 712.079468,435.088898 
z"/>
<path fill="#000000" opacity="1.000000" stroke="none" 
	d="
M507.265045,304.976715 
	C507.099152,319.864685 508.794067,317.883606 494.794342,318.019379 
	C485.805908,318.106567 476.814362,317.968842 467.828064,318.137512 
	C464.028900,318.208801 462.510773,316.921417 462.579956,312.934723 
	C462.782074,301.285614 462.759247,289.629028 462.582275,277.979034 
	C462.524323,274.164276 463.687012,272.629852 467.687927,272.697632 
	C479.170776,272.892181 490.660858,272.878540 502.144257,272.700714 
	C506.115356,272.639252 507.407013,274.212891 507.334961,278.014496 
	C507.167816,286.834137 507.270874,295.658875 507.265045,304.976715 
z"/>
<path fill="#000000" opacity="1.000000" stroke="none" 
	d="
M848.996704,528.867920 
	C853.491882,528.878845 857.488220,528.917358 861.484131,528.892090 
	C864.161804,528.875183 865.398682,530.055420 865.391907,532.816406 
	C865.361084,545.304626 865.361633,557.793579 865.486572,570.280945 
	C865.513550,572.980774 864.259094,573.844604 861.890442,573.837341 
	C849.736755,573.800049 837.583130,573.738403 825.429443,573.729370 
	C821.837952,573.726746 820.576416,572.099670 820.635254,568.481445 
	C820.819397,557.161499 820.866272,545.833130 820.621338,534.515503 
	C820.523987,530.015930 822.327393,528.709473 826.519409,528.827271 
	C833.840088,529.033081 841.171021,528.874329 848.996704,528.867920 
z"/>
<path fill="#000000" opacity="1.000000" stroke="none" 
	d="
M497.895020,324.007324 
	C507.268494,324.045685 507.270996,324.045685 507.270264,332.757294 
	C507.269379,342.904663 507.148804,353.053986 507.317719,363.198486 
	C507.383240,367.133362 506.153748,369.042816 501.962860,369.004883 
	C490.485870,368.900848 479.006500,368.947906 467.529266,369.059601 
	C463.950317,369.094421 462.521393,367.748779 462.576874,364.042938 
	C462.751068,352.400879 462.790741,340.752380 462.587616,329.111481 
	C462.516022,325.008911 464.341309,323.934845 467.967834,323.968842 
	C477.781708,324.060852 487.596985,324.004944 497.895020,324.007324 
z"/>
<path fill="#000000" opacity="1.000000" stroke="none" 
	d="
M449.862122,420.248871 
	C438.407837,420.242432 427.435211,420.203522 416.462921,420.249237 
	C413.504425,420.261536 411.078369,419.849762 411.079559,416.113800 
	C411.083038,405.307800 411.041901,394.501617 411.100952,383.695953 
	C411.114471,381.221771 411.460052,378.749359 411.663635,376.136749 
	C414.718811,375.056671 417.716217,375.642548 420.636841,375.617126 
	C430.444885,375.531708 440.261810,375.809692 450.059631,375.480530 
	C454.993591,375.314789 456.376495,377.208679 456.278748,381.849640 
	C456.051300,392.650787 456.067871,403.463715 456.304810,414.264832 
	C456.402893,418.734863 455.008392,420.913696 449.862122,420.248871 
z"/>
<path fill="#000000" opacity="1.000000" stroke="none" 
	d="
M916.899536,512.828491 
	C916.892517,513.804321 916.902100,514.303589 916.879333,514.801392 
	C916.530884,522.412048 916.529907,522.414429 908.937805,522.414551 
	C898.466736,522.414795 887.992737,522.267883 877.525940,522.478821 
	C873.323181,522.563416 871.544128,521.351868 871.642090,516.854126 
	C871.887817,505.557343 871.829346,494.250183 871.669861,482.950348 
	C871.616333,479.158447 872.810486,477.586761 876.797546,477.646667 
	C888.595581,477.824066 900.398499,477.754486 912.198547,477.661621 
	C915.290283,477.637299 916.725464,478.617401 916.705811,481.955048 
	C916.645996,492.086334 916.818848,502.219055 916.899536,512.828491 
z"/>
<path fill="#000000" opacity="1.000000" stroke="none" 
	d="
M914.962341,471.055298 
	C901.917053,471.234253 889.263428,471.203094 876.612854,471.385712 
	C872.911377,471.439117 871.633789,469.976868 871.673706,466.372559 
	C871.802734,454.718201 871.789795,443.061005 871.685608,431.406189 
	C871.656128,428.110138 872.653687,426.547607 876.235596,426.590942 
	C888.389282,426.737885 900.545532,426.681366 912.700806,426.668243 
	C914.941833,426.665833 916.649597,427.056152 916.653198,429.862061 
	C916.668091,441.674927 916.805542,453.488190 916.721558,465.300049 
	C916.708191,467.173401 917.074463,469.367828 914.962341,471.055298 
z"/>
<path fill="#000000" opacity="1.000000" stroke="none" 
	d="
M865.370972,388.054169 
	C865.419678,397.707062 865.380859,406.870392 865.565857,416.029205 
	C865.625916,419.001556 864.663757,420.294373 861.603882,420.274933 
	C849.443115,420.197662 837.281372,420.194519 825.120544,420.265717 
	C821.958557,420.284271 820.649109,419.046509 820.676331,415.821808 
	C820.777466,403.827972 820.784302,391.832245 820.682678,379.838470 
	C820.654480,376.511047 822.138123,375.564636 825.229492,375.551422 
	C836.878662,375.501709 848.530823,375.405457 860.173645,375.053772 
	C864.388672,374.926483 865.895813,376.474426 865.430908,380.571259 
	C865.169617,382.874420 865.375122,385.230591 865.370972,388.054169 
z"/>
<path fill="#000000" opacity="1.000000" stroke="none" 
	d="
M507.219177,533.272095 
	C507.245209,544.905884 507.288574,556.070984 507.252930,567.235840 
	C507.232330,573.686768 507.111328,573.555237 500.851501,573.527832 
	C491.359100,573.486267 481.865509,573.755920 472.372192,573.872131 
	C469.375305,573.908875 466.377167,573.883057 463.505646,573.094543 
	C462.375763,571.956848 462.652466,570.561584 462.650543,569.265442 
	C462.633331,557.600403 462.800354,545.932312 462.571838,534.271851 
	C462.488281,530.010010 464.174347,528.761597 468.143005,528.814514 
	C479.472839,528.965942 490.805786,528.900024 502.137451,528.880615 
	C504.898743,528.875854 507.215698,529.296448 507.219177,533.272095 
z"/>
<path fill="#000000" opacity="1.000000" stroke="none" 
	d="
M345.847137,528.885498 
	C350.752594,528.394287 352.557526,530.083557 352.434265,534.802612 
	C352.143250,545.941711 352.167664,557.097717 352.428253,568.238342 
	C352.527374,572.477234 351.067566,573.595398 346.994202,573.505066 
	C335.695648,573.254578 324.385681,573.283081 313.085144,573.482178 
	C308.947723,573.555054 307.563629,572.060791 307.634064,567.978027 
	C307.829102,556.668274 307.825531,545.350830 307.633423,534.041016 
	C307.565704,530.052917 309.144775,528.808228 312.926697,528.855713 
	C323.738922,528.991577 334.554077,528.893127 345.847137,528.885498 
z"/>
<path fill="#000000" opacity="1.000000" stroke="none" 
	d="
M376.001831,426.660889 
	C383.813812,426.663635 391.128967,426.788605 398.437164,426.617035 
	C402.002472,426.533417 403.523285,427.700806 403.476837,431.447723 
	C403.328613,443.405029 403.349213,455.366119 403.473785,467.323975 
	C403.505646,470.381561 402.381470,471.394745 399.399261,471.368439 
	C387.434692,471.262817 375.468201,471.265747 363.503418,471.357086 
	C360.159424,471.382599 358.715057,470.189758 358.755768,466.697388 
	C358.891357,455.065796 358.908936,443.430878 358.782867,431.799286 
	C358.741394,427.969147 360.110779,426.356140 364.038483,426.610077 
	C367.844879,426.856171 371.679749,426.661926 376.001831,426.660889 
z"/>
<path fill="#000000" opacity="1.000000" stroke="none" 
	d="
M379.001770,375.586243 
	C387.270782,375.585144 395.040436,375.585144 403.424225,375.585144 
	C403.424225,379.409821 403.424194,382.850983 403.424194,386.292175 
	C403.424164,396.103790 403.342133,405.916504 403.472870,415.726379 
	C403.513336,418.760742 402.841248,420.334198 399.378723,420.290833 
	C387.407013,420.140900 375.432037,420.151428 363.459320,420.238739 
	C360.000732,420.263947 358.751038,418.797394 358.781219,415.441010 
	C358.887329,403.634888 358.920624,391.826721 358.810669,380.020874 
	C358.778229,376.537231 360.076233,375.351410 363.538788,375.528564 
	C368.514618,375.783112 373.513428,375.589600 379.001770,375.586243 
z"/>
<path fill="#000000" opacity="1.000000" stroke="none" 
	d="
M391.958252,522.415527 
	C382.312897,522.409485 373.158691,522.281982 364.010193,522.455078 
	C360.155823,522.528015 358.681000,521.173462 358.746155,517.246765 
	C358.933899,505.934692 358.933411,494.616699 358.800110,483.303467 
	C358.754120,479.400757 359.842468,477.563690 364.158539,477.644379 
	C375.802246,477.862091 387.453766,477.787567 399.100189,477.655273 
	C402.261444,477.619354 403.520111,478.551636 403.475891,481.902130 
	C403.315582,494.046082 403.335846,506.194214 403.462433,518.338928 
	C403.493958,521.365723 402.459747,522.611511 399.438721,522.430359 
	C397.117767,522.291260 394.781281,522.410950 391.958252,522.415527 
z"/>
<path fill="#000000" opacity="1.000000" stroke="none" 
	d="
M462.651672,413.889679 
	C462.654968,402.242523 462.714874,391.080383 462.622589,379.919434 
	C462.597839,376.926025 463.196564,375.370178 466.753815,375.439545 
	C478.411011,375.666870 490.076508,375.691437 501.734802,375.519714 
	C505.860077,375.458954 507.367096,376.972595 507.314270,381.042816 
	C507.167297,392.369141 507.168671,403.700012 507.324524,415.026123 
	C507.377838,418.898407 505.955414,420.354919 502.062195,420.297241 
	C490.902832,420.131866 479.736206,420.069153 468.579590,420.304504 
	C464.100891,420.398987 461.932587,419.054596 462.651672,413.889679 
z"/>
<path fill="#000000" opacity="1.000000" stroke="none" 
	d="
M854.970886,426.659302 
	C866.644348,426.794037 865.290405,425.400299 865.367432,436.471039 
	C865.436951,446.457397 865.256714,456.447510 865.475403,466.429688 
	C865.554565,470.045532 864.583252,471.469849 860.757996,471.405243 
	C849.108826,471.208405 837.452698,471.228638 825.802368,471.388123 
	C821.866760,471.441986 820.587585,469.927368 820.647644,466.081055 
	C820.824280,454.764160 820.837219,443.440582 820.641113,432.124329 
	C820.571411,428.099152 821.796387,426.486938 826.012634,426.592316 
	C835.495178,426.829224 844.987793,426.661987 854.970886,426.659302 
z"/>
<path fill="#000000" opacity="1.000000" stroke="none" 
	d="
M865.407104,512.825012 
	C865.418274,522.416565 865.418274,522.421570 856.047913,522.420227 
	C846.059998,522.418762 836.069336,522.266541 826.085571,522.466187 
	C821.958191,522.548645 820.562256,521.062134 820.637756,516.959961 
	C820.845947,505.644104 820.813965,494.320679 820.663330,483.003113 
	C820.612915,479.216187 821.828735,477.605103 825.810364,477.660980 
	C837.460510,477.824524 849.115295,477.781738 860.766541,477.657013 
	C864.228149,477.619934 865.460083,478.990051 865.420593,482.388245 
	C865.304321,492.374603 865.399048,502.363403 865.407104,512.825012 
z"/>
<path fill="#000000" opacity="1.000000" stroke="none" 
	d="
M486.999695,477.708923 
	C492.653839,477.713776 497.808594,477.763977 502.962219,477.706573 
	C505.868774,477.674225 507.236938,478.962341 507.230133,481.890930 
	C507.202026,494.028076 507.198486,506.165405 507.236206,518.302490 
	C507.245453,521.269958 505.848633,522.419800 502.950897,522.405640 
	C490.813721,522.346313 478.675995,522.359192 466.538635,522.398376 
	C463.842865,522.407104 462.634735,521.281372 462.647064,518.524231 
	C462.702087,506.220795 462.710999,493.916656 462.640198,481.613342 
	C462.621948,478.439850 464.313904,477.683044 467.046539,477.705658 
	C473.530518,477.759399 480.015350,477.714355 486.999695,477.708923 
z"/>
<path fill="#000000" opacity="1.000000" stroke="none" 
	d="
M352.351562,503.999146 
	C352.341583,509.162109 352.270447,513.826355 352.345764,518.488281 
	C352.389404,521.190613 351.314545,522.422546 348.526154,522.406677 
	C336.202209,522.336487 323.877686,522.332520 311.553528,522.364136 
	C308.778442,522.371277 307.697937,521.060486 307.706757,518.395569 
	C307.747437,506.071442 307.747803,493.747070 307.730408,481.422882 
	C307.726868,478.917236 308.914856,477.776489 311.381836,477.776367 
	C323.872345,477.775696 336.362915,477.770935 348.853333,477.731628 
	C351.867065,477.722168 352.339539,479.581024 352.331055,482.014893 
	C352.306152,489.176300 352.340668,496.337921 352.351562,503.999146 
z"/>
<path fill="#000000" opacity="1.000000" stroke="none" 
	d="
M493.987854,426.674927 
	C509.120758,426.926483 507.110046,424.506226 507.259491,439.270813 
	C507.348755,448.089661 507.139038,456.912781 507.315704,465.728943 
	C507.394592,469.665375 506.265350,471.455719 501.964508,471.375824 
	C490.486237,471.162567 479.000092,471.231018 467.519409,471.375305 
	C463.896576,471.420837 462.525513,470.151672 462.580109,466.447449 
	C462.751862,454.801086 462.757263,443.149261 462.595490,431.502747 
	C462.544067,427.800201 463.881439,426.535889 467.530945,426.612610 
	C476.180603,426.794525 484.836578,426.673615 493.987854,426.674927 
z"/>
<path fill="#000000" opacity="1.000000" stroke="none" 
	d="
M321.011841,471.323090 
	C307.691071,471.295410 307.692078,471.295410 307.700195,458.264954 
	C307.705780,449.274200 307.806702,440.281860 307.661896,431.293488 
	C307.606079,427.828705 308.930084,426.594421 312.356049,426.630615 
	C324.175873,426.755493 335.998871,426.764862 347.818420,426.627106 
	C351.369202,426.585693 352.413025,428.062012 352.378784,431.400482 
	C352.259277,443.053894 352.243225,454.710480 352.388397,466.363342 
	C352.433502,469.985565 351.185516,471.433594 347.482025,471.363464 
	C338.827423,471.199585 330.167511,471.319031 321.011841,471.323090 
z"/>
<path fill="#000000" opacity="1.000000" stroke="none" 
	d="
M333.998840,420.237671 
	C326.673584,420.232788 319.844788,420.102600 313.023590,420.274231 
	C309.271149,420.368652 307.581116,419.161163 307.642365,415.145294 
	C307.819977,403.494385 307.805145,391.838257 307.674377,380.186310 
	C307.634918,376.669861 309.047455,375.549347 312.411713,375.578674 
	C324.064148,375.680328 335.719452,375.677917 347.371002,375.519562 
	C350.932739,375.471161 352.443481,376.551239 352.386200,380.342957 
	C352.210236,391.993744 352.231903,403.650024 352.376099,415.301666 
	C352.420807,418.914001 351.208466,420.473083 347.481567,420.293304 
	C343.163055,420.084991 338.826935,420.240692 333.998840,420.237671 
z"/>
</svg>