<svg version="1.1" id="Layer_1" xmlns="http://www.w3.org/2000/svg" xmlns:xlink="http://www.w3.org/1999/xlink" x="0px" y="0px"
	 width="100%" viewBox="0 0 576 576" enable-background="new 0 0 576 576" xml:space="preserve">
<path fill="#000000" opacity="1.000000" stroke="none" 
	d="
M290.305847,407.543945 
	C290.360870,410.198761 289.455566,411.449860 287.087555,411.438080 
	C279.921387,411.402374 272.754913,411.378967 265.588806,411.408783 
	C262.840027,411.420227 261.647827,410.097900 261.726105,407.423370 
	C261.765076,406.091553 261.709839,404.757202 261.709656,403.423981 
	C261.700745,334.758850 261.686920,266.093750 261.719116,197.428635 
	C261.720001,195.566605 260.942749,193.412888 263.623260,191.296188 
	C297.991333,240.165894 332.284668,288.929352 367.273102,338.681152 
	C402.573242,289.139008 437.183319,240.565292 471.716858,192.098999 
	C474.822235,193.257889 474.195312,195.329193 474.195892,197.015884 
	C474.220612,266.680878 474.177490,336.345947 474.296478,406.010742 
	C474.304108,410.485077 472.580078,411.950409 468.478088,411.862061 
	C462.323608,411.729401 456.162140,411.602203 450.010651,411.754974 
	C445.174530,411.875061 444.851593,409.080750 444.857697,405.300659 
	C444.923462,364.468414 444.890900,323.635986 444.854034,282.803619 
	C444.852448,281.029938 445.374695,279.161316 443.665771,276.450378 
	C418.213013,312.664001 393.047455,348.469025 367.043121,385.467407 
	C341.494843,349.687897 316.610809,314.838593 291.726746,279.989288 
	C291.256622,280.071747 290.786469,280.154236 290.316345,280.236694 
	C290.316345,322.522430 290.316345,364.808136 290.305847,407.543945 
z"/>
<path fill="#000000" opacity="1.000000" stroke="none" 
	d="
M200.162476,409.319122 
	C194.769318,409.981232 192.665314,407.977020 192.997238,402.906647 
	C193.343445,397.618225 193.230515,392.298676 193.280411,386.992371 
	C193.310562,383.785065 194.717880,382.087402 198.084869,382.116516 
	C204.221558,382.169617 210.359192,382.106354 216.496368,382.117920 
	C219.052689,382.122711 220.547424,383.233582 220.516235,386.004974 
	C220.443512,392.461914 220.360489,398.920013 220.414658,405.376526 
	C220.440674,408.479248 218.871399,409.377747 216.067673,409.332123 
	C210.926483,409.248505 205.782852,409.316223 200.162476,409.319122 
z"/>
<path fill="#000000" opacity="1.000000" stroke="none" 
	d="
M199.235901,320.785034 
	C205.188232,320.776825 210.667160,320.803802 216.145508,320.759521 
	C219.043655,320.736084 220.356735,322.059448 220.380600,324.980682 
	C220.432068,331.285767 220.636658,337.589508 220.732239,343.894470 
	C220.778351,346.935455 219.369705,348.398071 216.164536,348.330292 
	C210.024368,348.200439 203.878708,348.222473 197.737167,348.309814 
	C194.564560,348.354889 193.125885,346.828369 193.126099,343.814270 
	C193.126526,337.839111 193.223038,331.863922 193.224426,325.888763 
	C193.225311,322.132477 194.962906,320.368317 199.235901,320.785034 
z"/>
<path fill="#000000" opacity="1.000000" stroke="none" 
	d="
M162.648834,393.028259 
	C162.910873,381.771698 160.575607,382.057129 173.035873,382.018402 
	C177.023514,382.006012 181.013275,382.111206 184.998352,382.012726 
	C188.527725,381.925507 190.162964,383.335205 190.060745,387.024628 
	C189.895126,393.001740 189.963364,398.986877 190.019119,404.967865 
	C190.048050,408.072205 188.813828,409.454041 185.546631,409.360046 
	C179.403839,409.183380 173.251175,409.218262 167.105515,409.328278 
	C163.985550,409.384125 162.514297,408.267334 162.646652,404.985260 
	C162.800476,401.170380 162.661179,397.343719 162.648834,393.028259 
z"/>
<path fill="#000000" opacity="1.000000" stroke="none" 
	d="
M223.886627,324.404907 
	C224.341812,321.449249 226.126282,320.804596 228.297348,320.794281 
	C234.616608,320.764221 240.936081,320.783234 247.255417,320.764435 
	C249.965790,320.756378 251.190857,322.171936 251.195740,324.782928 
	C251.207886,331.268494 251.197678,337.754089 251.219528,344.239594 
	C251.229523,347.209717 249.692215,348.343903 246.836868,348.309326 
	C240.684494,348.234772 234.529221,348.193756 228.378052,348.303009 
	C224.812302,348.366364 223.734711,346.483795 223.764694,343.324432 
	C223.823120,337.171661 223.821548,331.018311 223.886627,324.404907 
z"/>
<path fill="#000000" opacity="1.000000" stroke="none" 
	d="
M248.636017,228.868790 
	C251.257095,229.813828 251.211853,231.723190 251.219574,233.552475 
	C251.244812,239.528259 251.167175,245.505020 251.247574,251.479813 
	C251.291977,254.779800 249.989014,256.370667 246.533585,256.297089 
	C240.560226,256.169922 234.581818,256.192780 228.606842,256.264069 
	C225.214386,256.304504 223.779205,254.655533 223.798737,251.400818 
	C223.834610,245.425140 223.877136,239.448929 223.831512,233.473587 
	C223.805542,230.074249 225.510666,228.702026 228.758087,228.728531 
	C235.230988,228.781387 241.704422,228.768066 248.636017,228.868790 
z"/>
<path fill="#000000" opacity="1.000000" stroke="none" 
	d="
M251.242859,272.009338 
	C250.941559,288.983337 253.761215,286.952911 236.682373,287.006348 
	C222.299316,287.051331 223.826263,288.369080 223.830627,274.252655 
	C223.835144,259.673157 223.848907,259.673157 238.678757,259.673767 
	C238.844986,259.673767 239.011246,259.671844 239.177444,259.674316 
	C252.420578,259.871521 251.168610,257.628418 251.242859,272.009338 
z"/>
<path fill="#000000" opacity="1.000000" stroke="none" 
	d="
M135.492462,382.142883 
	C142.084808,382.077148 148.227234,382.118958 154.368027,382.037476 
	C157.893311,381.990723 159.487213,383.432617 159.375534,387.104675 
	C159.198975,392.909607 159.227417,398.726227 159.367035,404.533173 
	C159.446732,407.848297 158.314850,409.430237 154.789215,409.341431 
	C148.650757,409.186737 142.504517,409.223022 136.363876,409.322845 
	C133.210693,409.374084 131.793808,408.041107 131.825989,404.891754 
	C131.888763,398.750122 131.865356,392.607422 131.848175,386.465240 
	C131.841873,384.211121 132.569794,382.567902 135.492462,382.142883 
z"/>
<path fill="#000000" opacity="1.000000" stroke="none" 
	d="
M89.883102,348.296967 
	C84.579414,348.292389 79.761612,348.252686 74.944557,348.295929 
	C72.026817,348.322083 70.699554,346.954529 70.718254,344.053040 
	C70.758949,337.740784 70.777969,331.427521 70.710144,325.115723 
	C70.679169,322.233093 71.899940,320.763367 74.827202,320.769501 
	C81.139656,320.782715 87.452293,320.803131 93.764557,320.767670 
	C96.357155,320.753113 97.960754,321.839233 97.986763,324.521149 
	C98.051178,331.163788 98.207375,337.814941 97.952026,344.448242 
	C97.746330,349.791992 93.350311,347.875061 89.883102,348.296967 
z"/>
<path fill="#000000" opacity="1.000000" stroke="none" 
	d="
M223.792694,360.081787 
	C223.813477,351.728699 223.813461,351.723114 231.790283,351.697205 
	C236.766464,351.681030 241.744873,351.772369 246.718109,351.648163 
	C249.903564,351.568634 251.263123,352.980927 251.240845,356.087280 
	C251.196838,362.224121 251.180222,368.362000 251.249847,374.498352 
	C251.281784,377.312836 250.183594,378.971588 247.248672,378.992859 
	C240.780655,379.039764 234.311966,379.069580 227.844055,379.028931 
	C224.927185,379.010620 223.775177,377.263641 223.789429,374.501129 
	C223.813400,369.856873 223.794525,365.212372 223.792694,360.081787 
z"/>
<path fill="#000000" opacity="1.000000" stroke="none" 
	d="
M98.076706,373.694641 
	C98.236877,377.466827 96.771591,379.080170 93.352798,379.037659 
	C87.360313,378.963104 81.365845,379.013092 75.372513,379.054565 
	C72.021027,379.077759 70.606293,377.513367 70.684464,374.138336 
	C70.823212,368.147644 70.800507,362.151031 70.724648,356.158417 
	C70.685150,353.038361 71.925636,351.598175 75.159569,351.658508 
	C81.317604,351.773376 87.481018,351.777618 93.638809,351.656067 
	C96.951584,351.590668 98.067673,353.268524 98.062836,356.248383 
	C98.053642,361.909058 98.074860,367.569794 98.076706,373.694641 
z"/>
<path fill="#000000" opacity="1.000000" stroke="none" 
	d="
M193.182907,375.411255 
	C193.118576,368.971222 193.124191,362.974548 193.125626,356.977844 
	C193.126480,353.388367 194.485916,351.460663 198.508087,351.633453 
	C204.162201,351.876373 209.839905,351.829773 215.497864,351.631195 
	C219.231232,351.500183 220.508453,353.079254 220.437454,356.659698 
	C220.318573,362.653595 220.431366,368.654358 220.557159,374.649933 
	C220.623322,377.804047 219.286102,379.218964 216.095917,379.160156 
	C209.933014,379.046570 203.767578,379.064850 197.603119,379.045868 
	C195.359894,379.038940 193.697281,378.288605 193.182907,375.411255 
z"/>
<path fill="#000000" opacity="1.000000" stroke="none" 
	d="
M203.078461,259.676331 
	C207.724258,259.681427 211.883560,259.747864 216.040192,259.670624 
	C218.909973,259.617310 220.375626,260.749481 220.350220,263.755737 
	C220.296814,270.075500 220.311768,276.396423 220.369461,282.716248 
	C220.396088,285.633362 218.993210,287.037537 216.152527,287.039490 
	C209.998581,287.043701 203.844315,286.963593 197.690735,287.003601 
	C194.480591,287.024475 193.175369,285.311859 193.176086,282.357697 
	C193.177429,276.871185 193.429077,271.378418 193.238861,265.899994 
	C193.064346,260.873901 195.185287,258.882019 200.098755,259.659302 
	C200.910034,259.787659 201.759171,259.676697 203.078461,259.676331 
z"/>
<path fill="#000000" opacity="1.000000" stroke="none" 
	d="
M195.588486,255.977570 
	C193.296249,254.733032 193.157654,252.828079 193.175659,251.023346 
	C193.236923,244.883728 193.481812,238.746063 193.559113,232.606415 
	C193.593979,229.835938 194.983231,228.752762 197.592651,228.757156 
	C203.738068,228.767502 209.884186,228.787537 216.028793,228.708954 
	C219.276031,228.667435 220.406570,230.293594 220.369827,233.345657 
	C220.295853,239.490265 220.299316,245.637558 220.396942,251.781738 
	C220.447006,254.933136 219.110626,256.330658 215.942719,256.274231 
	C209.302399,256.156036 202.659882,256.160248 195.588486,255.977570 
z"/>
<path fill="#000000" opacity="1.000000" stroke="none" 
	d="
M159.180481,222.714386 
	C158.361450,225.516373 156.371750,225.298676 154.573669,225.310837 
	C148.582520,225.351349 142.589066,225.238480 136.600220,225.363525 
	C133.183838,225.434845 131.768784,223.962677 131.819778,220.601639 
	C131.908157,214.777985 131.926712,208.950256 131.807449,203.127655 
	C131.742935,199.978210 132.946472,198.562592 136.187729,198.623718 
	C142.343399,198.739838 148.505463,198.768280 154.659576,198.617676 
	C158.060608,198.534439 159.469772,199.798111 159.368179,203.274826 
	C159.183548,209.593964 159.275833,215.921204 159.180481,222.714386 
z"/>
<path fill="#000000" opacity="1.000000" stroke="none" 
	d="
M190.025635,213.973465 
	C189.962143,227.350311 190.912674,225.102142 179.045410,225.334152 
	C174.887100,225.415466 170.724884,225.273300 166.565109,225.309265 
	C163.883011,225.332443 162.634811,224.197021 162.673798,221.422073 
	C162.762650,215.099640 162.775589,208.774261 162.684570,202.452026 
	C162.644073,199.638885 163.915146,198.619232 166.593796,198.646729 
	C173.083252,198.713333 179.574371,198.715363 186.063766,198.645584 
	C188.778625,198.616379 190.049606,199.754120 190.010574,202.496811 
	C189.958466,206.156967 190.015137,209.818665 190.025635,213.973465 
z"/>
<path fill="#000000" opacity="1.000000" stroke="none" 
	d="
M124.803223,351.706604 
	C127.701363,351.779327 128.361801,353.323181 128.366486,355.390472 
	C128.381195,361.888733 128.333755,368.387573 128.411835,374.884979 
	C128.448059,377.898529 126.945389,379.083527 124.124428,379.070160 
	C117.959503,379.040985 111.794449,379.039185 105.629539,379.007965 
	C102.989166,378.994598 101.675743,377.713989 101.695259,374.994171 
	C101.740677,368.662720 101.768684,362.329956 101.681793,355.999359 
	C101.636627,352.708496 103.270302,351.636566 106.326004,351.680084 
	C112.323280,351.765533 118.322800,351.693390 124.803223,351.706604 
z"/>
<path fill="#000000" opacity="1.000000" stroke="none" 
	d="
M128.391296,326.165833 
	C128.384811,332.466797 128.332764,338.285248 128.387436,344.102692 
	C128.414764,347.011597 127.183784,348.345917 124.207108,348.301819 
	C118.224113,348.213165 112.238190,348.214508 106.254967,348.292877 
	C103.165596,348.333313 101.639900,347.109741 101.677628,343.892761 
	C101.751694,337.576965 101.753662,331.258698 101.659233,324.943329 
	C101.614304,321.938721 103.008110,320.749390 105.881958,320.771820 
	C111.865860,320.818512 117.851189,320.847443 123.834320,320.765839 
	C127.293457,320.718689 128.668472,322.378967 128.391296,326.165833 
z"/>
<path fill="#000000" opacity="1.000000" stroke="none" 
	d="
M233.050858,290.663757 
	C238.032700,290.667725 242.523102,290.750275 247.009277,290.647461 
	C249.924728,290.580658 251.288406,291.726166 251.245178,294.729248 
	C251.156631,300.878937 251.173370,307.030853 251.214645,313.181427 
	C251.233871,316.047272 250.074860,317.457001 247.058380,317.407959 
	C240.742645,317.305328 234.423508,317.292542 228.107529,317.376190 
	C224.786026,317.420166 223.768402,315.689453 223.800034,312.705658 
	C223.858170,307.220184 224.046143,301.721283 223.748810,296.251434 
	C223.506348,291.791016 225.305817,290.138977 229.567261,290.646912 
	C230.550751,290.764160 231.560150,290.663879 233.050858,290.663757 
z"/>
<path fill="#000000" opacity="1.000000" stroke="none" 
	d="
M230.140594,225.350586 
	C225.436554,225.843643 223.531448,224.159744 223.729904,219.726791 
	C223.975311,214.244919 223.911896,208.741379 223.768143,203.252792 
	C223.677155,199.779297 225.161377,198.525909 228.538162,198.603485 
	C234.693085,198.744919 240.854477,198.694427 247.011642,198.611145 
	C249.851212,198.572754 251.350983,199.524841 251.288437,202.626160 
	C251.164291,208.782104 251.163589,214.942520 251.235397,221.099655 
	C251.273636,224.379715 249.677551,225.456726 246.598938,225.388245 
	C241.275421,225.269836 235.947418,225.353256 230.140594,225.350586 
z"/>
<path fill="#000000" opacity="1.000000" stroke="none" 
	d="
M104.273529,409.176453 
	C101.660202,408.526367 101.710831,406.744049 101.700935,405.089325 
	C101.664124,398.928192 101.793297,392.764160 101.646095,386.606354 
	C101.567581,383.322113 103.100739,382.115387 106.131516,382.121765 
	C112.126099,382.134369 118.120842,382.121613 124.115372,382.090088 
	C126.900673,382.075409 128.458649,383.111176 128.410553,386.196442 
	C128.311935,392.522644 128.325378,398.852631 128.423615,405.179016 
	C128.470139,408.174927 127.169579,409.362183 124.226669,409.316132 
	C117.733971,409.214569 111.239014,409.257782 104.273529,409.176453 
z"/>
<path fill="#000000" opacity="1.000000" stroke="none" 
	d="
M220.389420,310.900879 
	C220.925842,315.800781 219.276627,317.751984 214.552002,317.456604 
	C208.928543,317.105011 203.266113,317.284790 197.622971,317.378632 
	C194.748703,317.426453 193.176941,316.274689 193.192627,313.362091 
	C193.226578,307.057983 193.328720,300.754242 193.407394,294.450378 
	C193.440384,291.807312 194.677979,290.609985 197.425262,290.656677 
	C203.732361,290.763855 210.043503,290.757385 216.351028,290.664001 
	C219.438736,290.618317 220.391373,292.169952 220.361206,294.974182 
	C220.305862,300.120117 220.376053,305.267395 220.389420,310.900879 
z"/>
<path fill="#000000" opacity="1.000000" stroke="none" 
	d="
M220.409286,212.991409 
	C220.155792,227.245453 222.220184,225.137253 208.481766,225.348923 
	C204.827026,225.405243 201.167648,225.246170 197.515518,225.356094 
	C194.548065,225.445419 193.165787,224.028763 193.169891,221.216339 
	C193.178894,215.071884 193.325058,208.927582 193.324280,202.783218 
	C193.323853,199.499268 195.033096,198.553955 198.051056,198.616913 
	C204.030685,198.741608 210.016434,198.745926 215.996109,198.624878 
	C219.174240,198.560562 220.544724,199.816193 220.405991,203.026093 
	C220.269821,206.176910 220.397842,209.339142 220.409286,212.991409 
z"/>
</svg>