<svg version="1.1" id="Layer_1" xmlns="http://www.w3.org/2000/svg" xmlns:xlink="http://www.w3.org/1999/xlink" x="0px" y="0px"
	 width="100%" viewBox="0 0 2000 2000" enable-background="new 0 0 2000 2000" xml:space="preserve">
<path fill="#0F0F0F" opacity="1.000000" stroke="none" 
	d="
M891.000000,2001.000000 
	C594.000000,2001.000000 297.500000,2001.000000 1.000000,2001.000000 
	C1.000000,1334.333374 1.000000,667.666687 1.000000,1.000000 
	C667.666687,1.000000 1334.333374,1.000000 2001.000000,1.000000 
	C2001.000000,667.666687 2001.000000,1334.333374 2001.000000,2001.000000 
	C1631.166626,2001.000000 1261.333374,2001.000000 891.000000,2001.000000 
M1502.493652,793.521912 
	C1507.428467,793.521912 1512.363281,793.521912 1517.236206,793.521912 
	C1517.236206,763.480286 1517.236206,734.123535 1517.236206,704.817383 
	C1487.438354,704.817383 1458.041260,704.817383 1428.710693,704.817383 
	C1428.710693,734.513062 1428.710693,763.867493 1428.710693,793.521851 
	C1453.238037,793.521851 1477.367065,793.521851 1502.493652,793.521912 
M1724.785156,704.693054 
	C1695.809814,704.649597 1666.834351,704.603333 1637.859009,704.589355 
	C1637.427979,704.589172 1636.996704,704.990479 1636.657227,705.158936 
	C1636.657227,734.532898 1636.657227,763.783386 1636.657227,793.093567 
	C1666.458130,793.093567 1695.970337,793.093567 1725.473999,793.093567 
	C1725.473999,763.529358 1725.473999,734.393494 1724.785156,704.693054 
M1552.500244,793.521912 
	C1575.422729,793.521912 1598.345215,793.521912 1621.289062,793.521912 
	C1621.289062,763.529602 1621.289062,734.175720 1621.289062,704.796387 
	C1591.525391,704.796387 1562.133911,704.796387 1532.716553,704.796387 
	C1532.716553,734.470703 1532.716553,763.825073 1532.716553,793.521851 
	C1539.221069,793.521851 1545.360840,793.521851 1552.500244,793.521912 
M471.726044,716.523071 
	C471.726044,712.611816 471.726044,708.700623 471.726044,704.806946 
	C441.578491,704.806946 412.189270,704.806946 382.798340,704.806946 
	C382.798340,734.497498 382.798340,763.857544 382.798340,793.197144 
	C412.580170,793.197144 441.980408,793.197144 471.726013,793.197144 
	C471.726013,767.754700 471.726013,742.635498 471.726044,716.523071 
M1012.744690,769.499329 
	C1012.744690,777.436951 1012.744690,785.374573 1012.744690,793.212891 
	C1042.805298,793.212891 1072.227295,793.212891 1101.765625,793.212891 
	C1101.765625,763.631714 1101.765625,734.352234 1101.765625,704.804932 
	C1072.100708,704.804932 1042.580566,704.804932 1012.744690,704.804932 
	C1012.744690,726.248291 1012.744690,747.373779 1012.744690,769.499329 
M612.500549,704.483398 
	C605.249451,704.483398 597.998291,704.483398 590.926025,704.483398 
	C590.926025,734.607361 590.926025,763.964172 590.926025,793.146606 
	C620.751160,793.146606 650.148438,793.146606 679.538818,793.146606 
	C679.538818,763.525940 679.538818,734.275940 679.538818,704.483521 
	C657.375122,704.483521 635.437805,704.483521 612.500549,704.483398 
M486.454651,782.448547 
	C486.454651,786.039368 486.454651,789.630127 486.454651,793.207214 
	C516.593140,793.207214 545.993164,793.207214 575.383240,793.207214 
	C575.383240,763.536560 575.383240,734.182373 575.383240,704.801758 
	C545.629395,704.801758 516.244080,704.801758 486.454681,704.801758 
	C486.454681,730.569885 486.454681,756.015991 486.454651,782.448547 
M704.578125,704.486938 
	C701.322998,704.486938 698.067810,704.486938 694.966248,704.486938 
	C694.966248,734.594177 694.966248,763.959534 694.966248,793.141724 
	C724.597778,793.141724 753.811890,793.141724 782.873413,793.141724 
	C782.873413,763.399170 782.873413,734.029419 782.873413,704.487061 
	C756.843811,704.487061 731.199463,704.487061 704.578125,704.486938 
M1720.324463,1119.995972 
	C1692.429199,1119.995972 1664.533936,1119.995972 1636.717529,1119.995972 
	C1636.717529,1150.106079 1636.717529,1179.498779 1636.717529,1208.878174 
	C1666.464600,1208.878174 1695.873657,1208.878174 1725.428467,1208.878174 
	C1725.428467,1179.182617 1725.428467,1149.781372 1725.428467,1119.995972 
	C1723.875854,1119.995972 1722.578003,1119.995972 1720.324463,1119.995972 
M608.500854,1209.168335 
	C632.101440,1209.168335 655.701965,1209.168335 679.530273,1209.168335 
	C679.530273,1179.276245 679.530273,1149.884399 679.530273,1120.313477 
	C649.829773,1120.313477 620.322388,1120.313477 590.786499,1120.313477 
	C590.786499,1150.036865 590.786499,1179.444580 590.786499,1209.168335 
	C596.540161,1209.168335 602.020935,1209.168335 608.500854,1209.168335 
M1688.500000,1015.995850 
	C1671.244751,1015.995850 1653.989502,1015.995850 1636.647461,1015.995850 
	C1636.647461,1045.983521 1636.647461,1075.390747 1636.647461,1104.956055 
	C1666.334473,1104.956055 1695.754395,1104.956055 1725.322266,1104.956055 
	C1725.322266,1075.222412 1725.322266,1045.706177 1725.322266,1015.995850 
	C1713.139893,1015.995850 1701.319946,1015.995850 1688.500000,1015.995850 
M590.519348,999.073059 
	C592.041931,999.771545 593.561646,1001.072021 595.087463,1001.079041 
	C621.904541,1001.202759 648.722473,1001.172119 675.540161,1001.157166 
	C676.819458,1001.156433 678.098694,1000.991455 679.515259,1000.893494 
	C679.515259,971.198914 679.515259,941.803894 679.515259,912.203979 
	C649.847412,912.203979 620.425415,912.203979 590.511841,912.203979 
	C590.511841,940.913513 590.511841,969.526489 590.519348,999.073059 
M590.510742,1045.499634 
	C590.510742,1065.280151 590.510742,1085.060791 590.510742,1104.935303 
	C620.439514,1104.935303 649.856750,1104.935303 679.392578,1104.935303 
	C679.392578,1075.193237 679.392578,1045.685547 679.392578,1016.294556 
	C649.626770,1016.294556 620.230835,1016.294556 590.510803,1016.294556 
	C590.510803,1025.891357 590.510803,1035.195435 590.510742,1045.499634 
M1649.514526,1224.155762 
	C1645.258911,1224.155762 1641.003418,1224.155762 1636.592773,1224.155762 
	C1636.592773,1254.060669 1636.592773,1283.291748 1636.592773,1312.710938 
	C1666.315430,1312.710938 1695.823608,1312.710938 1725.290283,1312.710938 
	C1725.290283,1283.066528 1725.290283,1253.717896 1725.290283,1224.155762 
	C1700.098999,1224.155762 1675.304077,1224.155762 1649.514526,1224.155762 
M1694.500000,1001.172241 
	C1704.765747,1001.172241 1715.031494,1001.172241 1725.430298,1001.172241 
	C1725.430298,971.177307 1725.430298,941.778259 1725.430298,912.366577 
	C1695.657104,912.366577 1666.140747,912.366577 1636.726807,912.366577 
	C1636.726807,942.124878 1636.726807,971.511230 1636.726807,1001.172241 
	C1655.881226,1001.172241 1674.690674,1001.172241 1694.500000,1001.172241 
M382.428009,1381.499634 
	C382.428009,1393.264526 382.428009,1405.029541 382.428009,1416.745239 
	C412.477905,1416.745239 441.894104,1416.745239 471.472534,1416.745239 
	C471.472534,1387.088745 471.472534,1357.691406 471.472534,1328.061279 
	C441.808105,1328.061279 412.387970,1328.061279 382.428009,1328.061279 
	C382.428009,1345.605103 382.428009,1363.052368 382.428009,1381.499634 
M535.500061,1327.827881 
	C519.260620,1327.827881 503.021240,1327.827881 486.739380,1327.827881 
	C486.739380,1357.928345 486.739380,1387.341064 486.739380,1416.778198 
	C516.436829,1416.778198 545.859497,1416.778198 575.511719,1416.778198 
	C575.511719,1387.158081 575.511719,1357.763794 575.511719,1327.827881 
	C562.375977,1327.827881 549.438049,1327.827881 535.500061,1327.827881 
M661.499268,1417.001343 
	C667.447021,1417.001343 673.394775,1417.001343 679.533447,1417.001343 
	C679.533447,1387.123779 679.533447,1357.732178 679.533447,1328.190796 
	C649.804565,1328.190796 620.305054,1328.190796 590.794922,1328.190796 
	C590.794922,1357.957642 590.794922,1387.364380 590.794922,1417.001343 
	C614.218750,1417.001343 637.359070,1417.001343 661.499268,1417.001343 
M992.265869,704.485474 
	C964.649841,704.485474 937.033813,704.485474 909.217285,704.485474 
	C909.217285,734.311157 909.217285,763.700378 909.217285,793.204834 
	C938.840393,793.204834 968.240723,793.204834 997.732849,793.204834 
	C997.732849,763.616211 997.732849,734.337585 997.732849,704.729797 
	C996.130310,704.643372 994.667236,704.564514 992.265869,704.485474 
M1160.499756,793.514526 
	C1175.573975,793.514526 1190.648193,793.514526 1205.736816,793.514526 
	C1205.736816,763.527039 1205.736816,734.268799 1205.736816,704.859253 
	C1176.047119,704.859253 1146.546387,704.859253 1116.963745,704.859253 
	C1116.963745,734.495911 1116.963745,763.758545 1116.963745,793.514404 
	C1131.265625,793.514404 1145.382568,793.514404 1160.499756,793.514526 
M1725.685547,1402.492188 
	C1725.685547,1377.723022 1725.685547,1352.953857 1725.685547,1328.052490 
	C1695.705322,1328.052490 1666.286133,1328.052490 1636.760498,1328.052490 
	C1636.760498,1357.790771 1636.760498,1387.302856 1636.760498,1416.697754 
	C1666.544922,1416.697754 1695.948364,1416.697754 1725.685547,1416.697754 
	C1725.685547,1412.094849 1725.685547,1407.791016 1725.685547,1402.492188 
M1725.689941,867.500183 
	C1725.689941,847.941956 1725.689941,828.383789 1725.689941,808.798340 
	C1695.565186,808.798340 1666.182129,808.798340 1636.634277,808.798340 
	C1636.634277,838.332947 1636.634277,867.552246 1636.634277,896.789551 
	C1666.401123,896.789551 1695.907349,896.789551 1725.689941,896.789551 
	C1725.689941,887.103943 1725.689941,877.802063 1725.689941,867.500183 
M679.763977,1242.500977 
	C679.763977,1236.553589 679.763977,1230.606079 679.763977,1224.414551 
	C649.869385,1224.414551 620.487488,1224.414551 590.806274,1224.414551 
	C590.806274,1253.867676 590.806274,1283.245972 590.806274,1312.666992 
	C620.470520,1312.666992 649.980347,1312.666992 679.763977,1312.666992 
	C679.763977,1289.388306 679.763977,1266.444580 679.763977,1242.500977 
M679.765747,871.500122 
	C679.765747,850.616333 679.765747,829.732544 679.765747,808.796997 
	C649.670349,808.796997 620.295166,808.796997 590.741333,808.796997 
	C590.741333,838.331177 590.741333,867.556885 590.741333,896.788452 
	C620.487366,896.788452 649.995483,896.788452 679.765747,896.788452 
	C679.765747,888.438232 679.765747,880.469177 679.765747,871.500122 
M1380.500244,704.481995 
	C1362.050171,704.481995 1343.600098,704.481995 1325.121826,704.481995 
	C1325.121826,734.382568 1325.121826,763.770386 1325.121826,793.223755 
	C1354.662842,793.223755 1383.892944,793.223755 1413.241577,793.223755 
	C1413.241577,763.570679 1413.241577,734.213074 1413.241577,704.482117 
	C1402.430054,704.482117 1391.965210,704.482117 1380.500244,704.481995 
M1236.502686,1313.001709 
	C1260.922729,1313.001709 1285.342773,1313.001709 1309.649902,1313.001709 
	C1309.649902,1283.062744 1309.649902,1253.806274 1309.649902,1224.446045 
	C1279.956421,1224.446045 1250.550049,1224.446045 1220.973145,1224.446045 
	C1220.973145,1254.000000 1220.973145,1283.268188 1220.973145,1313.001709 
	C1225.922729,1313.001709 1230.713257,1313.001709 1236.502686,1313.001709 
M1220.802246,1177.499878 
	C1220.802246,1187.936890 1220.802246,1198.373901 1220.802246,1208.942383 
	C1250.707031,1208.942383 1280.103394,1208.942383 1309.589600,1208.942383 
	C1309.589600,1179.195068 1309.589600,1149.673462 1309.589600,1120.290771 
	C1279.828735,1120.290771 1250.413574,1120.290771 1220.802246,1120.290771 
	C1220.802246,1139.220459 1220.802246,1157.860107 1220.802246,1177.499878 
M1324.819336,1135.502319 
	C1324.819336,1159.939331 1324.819336,1184.376221 1324.819336,1208.959473 
	C1354.581299,1208.959473 1383.835449,1208.959473 1413.199219,1208.959473 
	C1413.199219,1179.226807 1413.199219,1149.705688 1413.199219,1120.282349 
	C1383.555542,1120.282349 1354.295898,1120.282349 1324.819336,1120.282349 
	C1324.819336,1125.211182 1324.819336,1129.857300 1324.819336,1135.502319 
M1829.181885,1165.500000 
	C1829.181885,1150.418945 1829.181885,1135.337891 1829.181885,1120.258301 
	C1799.186157,1120.258301 1769.786011,1120.258301 1740.272217,1120.258301 
	C1740.272217,1149.920410 1740.272217,1179.323975 1740.272217,1208.809082 
	C1770.005981,1208.809082 1799.521240,1208.809082 1829.181885,1208.809082 
	C1829.181885,1194.467896 1829.181885,1180.483887 1829.181885,1165.500000 
M174.859848,1288.500000 
	C174.859848,1296.583496 174.859848,1304.666992 174.859848,1312.778076 
	C204.829834,1312.778076 234.214554,1312.778076 263.678345,1312.778076 
	C263.678345,1283.203125 263.678345,1253.852295 263.678345,1224.423584 
	C234.003250,1224.423584 204.628113,1224.423584 174.859848,1224.423584 
	C174.859848,1245.622803 174.859848,1266.561401 174.859848,1288.500000 
M278.877686,1280.500000 
	C278.877686,1291.251953 278.877686,1302.003784 278.877686,1312.793335 
	C308.710907,1312.793335 337.956116,1312.793335 367.345062,1312.793335 
	C367.345062,1283.215576 367.345062,1253.848511 367.345062,1224.409180 
	C337.769562,1224.409180 308.533234,1224.409180 278.877686,1224.409180 
	C278.877686,1242.937622 278.877686,1261.218750 278.877686,1280.500000 
M894.092224,1295.499023 
	C894.092224,1271.786499 894.092224,1248.073975 894.092224,1224.489136 
	C863.955994,1224.489136 834.584229,1224.489136 805.351807,1224.489136 
	C805.351807,1254.180542 805.351807,1283.542969 805.351807,1312.708984 
	C835.097717,1312.708984 864.489075,1312.708984 894.092224,1312.708984 
	C894.092224,1307.111816 894.092224,1301.805176 894.092224,1295.499023 
M997.890442,1227.775635 
	C998.635803,1223.709229 995.877808,1224.145508 993.326416,1224.147339 
	C966.524170,1224.167603 939.721924,1224.155762 912.919678,1224.173584 
	C911.656982,1224.174438 910.394470,1224.370850 909.205444,1224.470093 
	C909.205444,1254.112671 909.205444,1283.359985 909.205444,1312.752686 
	C938.777710,1312.752686 968.143250,1312.752686 997.890564,1312.752686 
	C997.890564,1284.578003 997.890564,1256.650879 997.890442,1227.775635 
M804.999146,1403.491943 
	C804.999146,1407.925415 804.999146,1412.359009 804.999146,1416.742432 
	C834.986633,1416.742432 864.393494,1416.742432 893.877930,1416.742432 
	C893.877930,1387.075073 893.877930,1357.665527 893.877930,1328.045410 
	C864.267029,1328.045410 834.868530,1328.045410 804.999146,1328.045410 
	C804.999146,1352.946655 804.999146,1377.720947 804.999146,1403.491943 
M1407.358154,1313.003418 
	C1409.301392,1313.003418 1411.244629,1313.003418 1413.216919,1313.003418 
	C1413.216919,1283.125244 1413.216919,1253.754395 1413.216919,1224.453857 
	C1383.610352,1224.453857 1354.372681,1224.453857 1325.163696,1224.453857 
	C1325.163696,1254.107544 1325.163696,1283.463989 1325.163696,1313.003418 
	C1352.468994,1313.003418 1379.428467,1313.003418 1407.358154,1313.003418 
M1324.819336,1334.536865 
	C1324.819336,1361.947754 1324.819336,1389.358521 1324.819336,1416.743408 
	C1354.695068,1416.743408 1383.941772,1416.743408 1413.327515,1416.743408 
	C1413.327515,1387.063599 1413.327515,1357.643066 1413.327515,1328.199219 
	C1383.696289,1328.199219 1354.321289,1328.199219 1324.819336,1328.199219 
	C1324.819336,1330.227783 1324.819336,1331.887939 1324.819336,1334.536865 
M1829.183594,1279.500000 
	C1829.183594,1261.121338 1829.183594,1242.742798 1829.183594,1224.507568 
	C1799.016479,1224.507568 1769.650269,1224.507568 1740.254395,1224.507568 
	C1740.254395,1254.088501 1740.254395,1283.322266 1740.254395,1312.705322 
	C1769.968872,1312.705322 1799.481934,1312.705322 1829.183594,1312.705322 
	C1829.183594,1301.773560 1829.183594,1291.136719 1829.183594,1279.500000 
M306.500061,1327.831177 
	C297.405518,1327.831177 288.311005,1327.831177 279.225220,1327.831177 
	C279.225220,1357.844360 279.225220,1387.341064 279.225220,1416.758667 
	C308.798492,1416.758667 338.025116,1416.758667 367.464386,1416.758667 
	C367.464386,1387.135010 367.464386,1357.754395 367.464386,1327.831177 
	C347.334778,1327.831177 327.417450,1327.831177 306.500061,1327.831177 
M1263.500000,1417.000000 
	C1278.915039,1417.000000 1294.330078,1417.000000 1309.651367,1417.000000 
	C1309.651367,1386.931641 1309.651367,1357.525757 1309.651367,1328.086670 
	C1279.965210,1328.086670 1250.562866,1328.086670 1220.982422,1328.086670 
	C1220.982422,1357.742310 1220.982422,1387.144287 1220.982422,1417.000000 
	C1234.938354,1417.000000 1248.719238,1417.000000 1263.500000,1417.000000 
M909.000488,1360.500000 
	C909.000488,1379.255371 909.000488,1398.010864 909.000488,1416.649902 
	C938.946716,1416.649902 968.323486,1416.649902 997.579956,1416.649902 
	C997.579956,1386.894897 997.579956,1357.491455 997.579956,1328.000244 
	C968.006592,1328.000244 938.742126,1328.000244 909.000488,1328.000244 
	C909.000488,1338.607178 909.000488,1349.053589 909.000488,1360.500000 
M1740.055054,1382.500000 
	C1740.055054,1393.924561 1740.055054,1405.348999 1740.055054,1416.745117 
	C1770.070801,1416.745117 1799.481567,1416.745117 1828.969482,1416.745117 
	C1828.969482,1387.084717 1828.969482,1357.679565 1828.969482,1328.203857 
	C1799.250488,1328.203857 1769.745239,1328.203857 1740.055054,1328.203857 
	C1740.055054,1346.215820 1740.055054,1363.857910 1740.055054,1382.500000 
M871.499939,1209.165894 
	C878.931030,1209.165894 886.362122,1209.165894 893.879272,1209.165894 
	C893.879272,1179.207520 893.879272,1149.802246 893.879272,1120.352417 
	C864.144043,1120.352417 834.621582,1120.352417 805.290710,1120.352417 
	C805.290710,1150.125000 805.290710,1179.544800 805.290710,1209.165894 
	C827.221069,1209.165894 848.860474,1209.165894 871.499939,1209.165894 
M804.996338,814.653564 
	C804.996338,842.074158 804.996338,869.494812 804.996338,896.933289 
	C834.929504,896.933289 864.322021,896.933289 893.903687,896.933289 
	C893.903687,867.455688 893.903687,838.214539 893.903687,808.858765 
	C864.213318,808.858765 834.699829,808.858765 804.996338,808.858765 
	C804.996338,810.716553 804.996338,812.208496 804.996338,814.653564 
M989.400696,808.490295 
	C962.667236,808.490295 935.933838,808.490295 909.260864,808.490295 
	C909.260864,838.409546 909.260864,867.653015 909.260864,896.832397 
	C938.888794,896.832397 968.252319,896.832397 997.585083,896.832397 
	C997.585083,867.288330 997.585083,838.084229 997.585083,808.490356 
	C994.976013,808.490356 992.669678,808.490356 989.400696,808.490295 
M1279.500366,808.491211 
	C1260.057129,808.491211 1240.613892,808.491211 1221.168945,808.491211 
	C1221.168945,838.333557 1221.168945,867.683594 1221.168945,896.843872 
	C1250.917969,896.843872 1280.295532,896.843872 1309.660034,896.843872 
	C1309.660034,867.309143 1309.660034,838.102173 1309.660034,808.491333 
	C1299.758789,808.491333 1290.129639,808.491333 1279.500366,808.491211 
M1829.185791,854.500061 
	C1829.185791,839.268127 1829.185791,824.036194 1829.185791,808.783203 
	C1799.095093,808.783203 1769.694458,808.783203 1740.295898,808.783203 
	C1740.295898,838.316040 1740.295898,867.556274 1740.295898,896.803345 
	C1770.047485,896.803345 1799.553345,896.803345 1829.185791,896.803345 
	C1829.185791,882.790894 1829.185791,869.145508 1829.185791,854.500061 
M858.500000,912.000244 
	C840.742676,912.000244 822.985291,912.000244 805.231201,912.000244 
	C805.231201,941.987915 805.231201,971.402893 805.231201,1000.958862 
	C834.861572,1000.958862 864.259766,1000.958862 893.763184,1000.958862 
	C893.763184,971.229492 893.763184,941.708496 893.763184,912.000244 
	C882.124451,912.000244 870.812195,912.000244 858.500000,912.000244 
M909.000488,973.500000 
	C909.000488,982.614014 909.000488,991.728088 909.000488,1000.843140 
	C938.849976,1000.843140 968.219482,1000.843140 997.621094,1000.843140 
	C997.621094,971.123047 997.621094,941.728088 997.621094,912.296875 
	C967.972290,912.296875 938.592163,912.296875 909.000488,912.296875 
	C909.000488,932.562439 909.000488,952.531189 909.000488,973.500000 
M1287.500000,1001.166809 
	C1294.912354,1001.166809 1302.324829,1001.166809 1309.644531,1001.166809 
	C1309.644531,971.057007 1309.644531,941.661072 1309.644531,912.241699 
	C1279.943848,912.241699 1250.533813,912.241699 1221.178955,912.241699 
	C1221.178955,942.004578 1221.178955,971.524109 1221.178955,1001.166809 
	C1243.203735,1001.166809 1264.851807,1001.166809 1287.500000,1001.166809 
M1324.819336,935.500000 
	C1324.819336,957.271057 1324.819336,979.042114 1324.819336,1000.959961 
	C1354.580933,1000.959961 1383.835083,1000.959961 1413.199707,1000.959961 
	C1413.199707,971.227478 1413.199707,941.706116 1413.199707,912.281921 
	C1383.556763,912.281921 1354.296997,912.281921 1324.819336,912.281921 
	C1324.819336,919.876038 1324.819336,927.187988 1324.819336,935.500000 
M1740.055664,998.329590 
	C1739.569092,1002.131104 1742.384521,1001.140259 1744.309692,1001.142761 
	C1771.463379,1001.177979 1798.616943,1001.171021 1825.770630,1001.150696 
	C1826.864868,1001.149902 1827.958984,1000.915894 1828.892578,1000.808899 
	C1828.892578,971.070923 1828.892578,941.672913 1828.892578,912.253174 
	C1799.200195,912.253174 1769.798096,912.253174 1740.055176,912.253174 
	C1740.055176,940.788025 1740.055176,969.070984 1740.055664,998.329590 
M879.497253,1105.165894 
	C884.266296,1105.165894 889.035339,1105.165894 893.878845,1105.165894 
	C893.878845,1075.206909 893.878845,1045.801636 893.878845,1016.352905 
	C864.143250,1016.352905 834.620789,1016.352905 805.291138,1016.352905 
	C805.291138,1046.125854 805.291138,1075.545654 805.291138,1105.165894 
	C829.887573,1105.165894 854.192627,1105.165894 879.497253,1105.165894 
M997.888733,1052.500000 
	C997.888733,1040.409424 997.888733,1028.318848 997.888733,1016.343140 
	C967.881042,1016.343140 938.499390,1016.343140 909.281311,1016.343140 
	C909.281311,1046.104126 909.281311,1075.520630 909.281311,1104.792480 
	C938.933411,1104.792480 968.303284,1104.792480 997.888733,1104.792480 
	C997.888733,1087.445557 997.888733,1070.472778 997.888733,1052.500000 
M1309.934448,1066.500000 
	C1309.934448,1049.745850 1309.934448,1032.991821 1309.934448,1016.251465 
	C1279.920776,1016.251465 1250.509644,1016.251465 1221.010498,1016.251465 
	C1221.010498,1045.907471 1221.010498,1075.311523 1221.010498,1104.798340 
	C1250.726196,1104.798340 1280.232056,1104.798340 1309.934448,1104.798340 
	C1309.934448,1092.120483 1309.934448,1079.810303 1309.934448,1066.500000 
M1324.819336,1031.502319 
	C1324.819336,1055.939331 1324.819336,1080.376221 1324.819336,1104.959473 
	C1354.581299,1104.959473 1383.835449,1104.959473 1413.199219,1104.959473 
	C1413.199219,1075.226807 1413.199219,1045.705688 1413.199219,1016.282349 
	C1383.555664,1016.282349 1354.295898,1016.282349 1324.819336,1016.282349 
	C1324.819336,1021.211304 1324.819336,1025.857300 1324.819336,1031.502319 
M1770.500000,1105.166748 
	C1789.935181,1105.166748 1809.370239,1105.166748 1828.991699,1105.166748 
	C1828.991699,1075.277954 1828.991699,1045.874390 1828.991699,1016.319824 
	C1799.316284,1016.319824 1769.791260,1016.319824 1740.326660,1016.319824 
	C1740.326660,1046.047607 1740.326660,1075.454712 1740.326660,1105.166748 
	C1750.230347,1105.166748 1759.865234,1105.166748 1770.500000,1105.166748 
M199.500000,1120.000244 
	C191.387665,1120.000244 183.275345,1120.000244 175.241867,1120.000244 
	C175.241867,1150.025269 175.241867,1179.551758 175.241867,1208.809082 
	C205.013641,1208.809082 234.405060,1208.809082 263.687927,1208.809082 
	C263.687927,1179.049561 263.687927,1149.647583 263.687927,1120.000244 
	C242.434097,1120.000244 221.467041,1120.000244 199.500000,1120.000244 
M336.500000,1119.998291 
	C317.409393,1119.998291 298.318817,1119.998291 279.206177,1119.998291 
	C279.206177,1149.968262 279.206177,1179.475464 279.206177,1208.918579 
	C308.762573,1208.918579 337.991333,1208.918579 367.310516,1208.918579 
	C367.310516,1179.173828 367.310516,1149.680786 367.310516,1119.998291 
	C357.126862,1119.998291 347.313416,1119.998291 336.500000,1119.998291 
M956.500000,1119.999512 
	C940.743103,1119.999512 924.986145,1119.999512 909.229736,1119.999512 
	C909.229736,1149.985229 909.229736,1179.397705 909.229736,1208.855469 
	C938.829468,1208.855469 968.198975,1208.855469 997.632080,1208.855469 
	C997.632080,1179.147583 997.632080,1149.752197 997.632080,1119.999512 
	C984.085693,1119.999512 970.792847,1119.999512 956.500000,1119.999512 
M775.428162,1224.161377 
	C748.657471,1224.161377 721.886780,1224.161377 694.837769,1224.161377 
	C694.837769,1253.893921 694.837769,1283.281738 694.837769,1312.687256 
	C724.384338,1312.687256 753.756958,1312.687256 783.008057,1312.687256 
	C783.008057,1283.126465 783.008057,1253.880005 783.008057,1224.161377 
	C780.650391,1224.161377 778.529358,1224.161377 775.428162,1224.161377 
M1413.511353,896.070618 
	C1413.511353,866.999268 1413.511353,837.927979 1413.511353,808.746948 
	C1383.642944,808.746948 1354.397583,808.746948 1325.036621,808.746948 
	C1325.036621,838.254395 1325.036621,867.501526 1325.036621,897.173462 
	C1338.032593,897.173462 1350.811646,897.212585 1363.590332,897.163696 
	C1380.065186,897.100708 1396.539673,896.967163 1413.511353,896.070618 
M718.499939,897.169800 
	C740.052246,897.169800 761.604553,897.169800 782.883545,897.169800 
	C782.883545,867.204773 782.883545,838.000732 782.883545,808.828552 
	C753.307434,808.828552 724.102539,808.828552 694.816223,808.828552 
	C694.816223,838.392273 694.816223,867.619141 694.816223,897.169800 
	C702.548645,897.169800 710.024292,897.169800 718.499939,897.169800 
M694.564575,1067.499634 
	C694.564575,1079.931396 694.564575,1092.363281 694.564575,1104.941040 
	C724.338684,1104.941040 753.581665,1104.941040 783.036865,1104.941040 
	C783.036865,1075.307739 783.036865,1045.898682 783.036865,1016.267944 
	C753.541260,1016.267944 724.142639,1016.267944 694.564575,1016.267944 
	C694.564575,1033.189941 694.564575,1049.844727 694.564575,1067.499634 
M694.564636,996.497192 
	C694.564636,997.932068 694.564636,999.366943 694.564636,1000.939331 
	C724.343567,1000.939331 753.586182,1000.939331 783.038818,1000.939331 
	C783.038818,971.304504 783.038818,941.895813 783.038818,912.268799 
	C753.537903,912.268799 724.139526,912.268799 694.564575,912.268799 
	C694.564575,940.188904 694.564575,967.840759 694.564636,996.497192 
M714.500305,1120.000244 
	C707.898804,1120.000244 701.297302,1120.000244 694.871704,1120.000244 
	C694.871704,1150.036133 694.871704,1179.444336 694.871704,1208.906006 
	C724.420532,1208.906006 753.661438,1208.906006 783.052979,1208.906006 
	C783.052979,1179.239746 783.052979,1149.833374 783.052979,1120.000244 
	C760.406189,1120.000244 737.953125,1120.000244 714.500305,1120.000244 
z"/>
<path fill="#FAFAFA" opacity="1.000000" stroke="none" 
	d="
M1501.994873,793.521851 
	C1477.367065,793.521851 1453.238037,793.521851 1428.710693,793.521851 
	C1428.710693,763.867493 1428.710693,734.513062 1428.710693,704.817383 
	C1458.041260,704.817383 1487.438354,704.817383 1517.236206,704.817383 
	C1517.236206,734.123535 1517.236206,763.480286 1517.236206,793.521912 
	C1512.363281,793.521912 1507.428467,793.521912 1501.994873,793.521851 
z"/>
<path fill="#FAFAFA" opacity="1.000000" stroke="none" 
	d="
M1725.129639,704.975342 
	C1725.473999,734.393494 1725.473999,763.529358 1725.473999,793.093567 
	C1695.970337,793.093567 1666.458130,793.093567 1636.657227,793.093567 
	C1636.657227,763.783386 1636.657227,734.532898 1636.657227,705.158936 
	C1636.996704,704.990479 1637.427979,704.589172 1637.859009,704.589355 
	C1666.834351,704.603333 1695.809814,704.649597 1725.129639,704.975342 
z"/>
<path fill="#FAFAFA" opacity="1.000000" stroke="none" 
	d="
M1552.000488,793.521851 
	C1545.360840,793.521851 1539.221069,793.521851 1532.716553,793.521851 
	C1532.716553,763.825073 1532.716553,734.470703 1532.716553,704.796387 
	C1562.133911,704.796387 1591.525391,704.796387 1621.289062,704.796387 
	C1621.289062,734.175720 1621.289062,763.529602 1621.289062,793.521912 
	C1598.345215,793.521912 1575.422729,793.521912 1552.000488,793.521851 
z"/>
<path fill="#FAFAFA" opacity="1.000000" stroke="none" 
	d="
M471.726013,717.019714 
	C471.726013,742.635498 471.726013,767.754700 471.726013,793.197144 
	C441.980408,793.197144 412.580170,793.197144 382.798340,793.197144 
	C382.798340,763.857544 382.798340,734.497498 382.798340,704.806946 
	C412.189270,704.806946 441.578491,704.806946 471.726044,704.806946 
	C471.726044,708.700623 471.726044,712.611816 471.726013,717.019714 
z"/>
<path fill="#FCFCFC" opacity="1.000000" stroke="none" 
	d="
M1012.744690,768.999268 
	C1012.744690,747.373779 1012.744690,726.248291 1012.744690,704.804932 
	C1042.580566,704.804932 1072.100708,704.804932 1101.765625,704.804932 
	C1101.765625,734.352234 1101.765625,763.631714 1101.765625,793.212891 
	C1072.227295,793.212891 1042.805298,793.212891 1012.744690,793.212891 
	C1012.744690,785.374573 1012.744690,777.436951 1012.744690,768.999268 
z"/>
<path fill="#FBFBFB" opacity="1.000000" stroke="none" 
	d="
M613.000488,704.483459 
	C635.437805,704.483521 657.375122,704.483521 679.538818,704.483521 
	C679.538818,734.275940 679.538818,763.525940 679.538818,793.146606 
	C650.148438,793.146606 620.751160,793.146606 590.926025,793.146606 
	C590.926025,763.964172 590.926025,734.607361 590.926025,704.483398 
	C597.998291,704.483398 605.249451,704.483398 613.000488,704.483459 
z"/>
<path fill="#FAFAFA" opacity="1.000000" stroke="none" 
	d="
M486.454651,781.955322 
	C486.454681,756.015991 486.454681,730.569885 486.454681,704.801758 
	C516.244080,704.801758 545.629395,704.801758 575.383240,704.801758 
	C575.383240,734.182373 575.383240,763.536560 575.383240,793.207214 
	C545.993164,793.207214 516.593140,793.207214 486.454651,793.207214 
	C486.454651,789.630127 486.454651,786.039368 486.454651,781.955322 
z"/>
<path fill="#FCFCFC" opacity="1.000000" stroke="none" 
	d="
M705.066650,704.487000 
	C731.199463,704.487061 756.843811,704.487061 782.873413,704.487061 
	C782.873413,734.029419 782.873413,763.399170 782.873413,793.141724 
	C753.811890,793.141724 724.597778,793.141724 694.966248,793.141724 
	C694.966248,763.959534 694.966248,734.594177 694.966248,704.486938 
	C698.067810,704.486938 701.322998,704.486938 705.066650,704.487000 
z"/>
<path fill="#FDFDFD" opacity="1.000000" stroke="none" 
	d="
M1720.802246,1119.995972 
	C1722.578003,1119.995972 1723.875854,1119.995972 1725.428467,1119.995972 
	C1725.428467,1149.781372 1725.428467,1179.182617 1725.428467,1208.878174 
	C1695.873657,1208.878174 1666.464600,1208.878174 1636.717529,1208.878174 
	C1636.717529,1179.498779 1636.717529,1150.106079 1636.717529,1119.995972 
	C1664.533936,1119.995972 1692.429199,1119.995972 1720.802246,1119.995972 
z"/>
<path fill="#FEFEFE" opacity="1.000000" stroke="none" 
	d="
M608.001282,1209.168335 
	C602.020935,1209.168335 596.540161,1209.168335 590.786499,1209.168335 
	C590.786499,1179.444580 590.786499,1150.036865 590.786499,1120.313477 
	C620.322388,1120.313477 649.829773,1120.313477 679.530273,1120.313477 
	C679.530273,1149.884399 679.530273,1179.276245 679.530273,1209.168335 
	C655.701965,1209.168335 632.101440,1209.168335 608.001282,1209.168335 
z"/>
<path fill="#FDFDFD" opacity="1.000000" stroke="none" 
	d="
M1689.000000,1015.995850 
	C1701.319946,1015.995850 1713.139893,1015.995850 1725.322266,1015.995850 
	C1725.322266,1045.706177 1725.322266,1075.222412 1725.322266,1104.956055 
	C1695.754395,1104.956055 1666.334473,1104.956055 1636.647461,1104.956055 
	C1636.647461,1075.390747 1636.647461,1045.983521 1636.647461,1015.995850 
	C1653.989502,1015.995850 1671.244751,1015.995850 1689.000000,1015.995850 
z"/>
<path fill="#FEFEFE" opacity="1.000000" stroke="none" 
	d="
M590.515625,998.606323 
	C590.511841,969.526489 590.511841,940.913513 590.511841,912.203979 
	C620.425415,912.203979 649.847412,912.203979 679.515259,912.203979 
	C679.515259,941.803894 679.515259,971.198914 679.515259,1000.893494 
	C678.098694,1000.991455 676.819458,1001.156433 675.540161,1001.157166 
	C648.722473,1001.172119 621.904541,1001.202759 595.087463,1001.079041 
	C593.561646,1001.072021 592.041931,999.771545 590.515625,998.606323 
z"/>
<path fill="#FEFEFE" opacity="1.000000" stroke="none" 
	d="
M590.510742,1044.999512 
	C590.510803,1035.195435 590.510803,1025.891357 590.510803,1016.294556 
	C620.230835,1016.294556 649.626770,1016.294556 679.392578,1016.294556 
	C679.392578,1045.685547 679.392578,1075.193237 679.392578,1104.935303 
	C649.856750,1104.935303 620.439514,1104.935303 590.510742,1104.935303 
	C590.510742,1085.060791 590.510742,1065.280151 590.510742,1044.999512 
z"/>
<path fill="#FCFCFC" opacity="1.000000" stroke="none" 
	d="
M1650.011719,1224.155762 
	C1675.304077,1224.155762 1700.098999,1224.155762 1725.290283,1224.155762 
	C1725.290283,1253.717896 1725.290283,1283.066528 1725.290283,1312.710938 
	C1695.823608,1312.710938 1666.315430,1312.710938 1636.592773,1312.710938 
	C1636.592773,1283.291748 1636.592773,1254.060669 1636.592773,1224.155762 
	C1641.003418,1224.155762 1645.258911,1224.155762 1650.011719,1224.155762 
z"/>
<path fill="#FDFDFD" opacity="1.000000" stroke="none" 
	d="
M1694.000000,1001.172241 
	C1674.690674,1001.172241 1655.881226,1001.172241 1636.726807,1001.172241 
	C1636.726807,971.511230 1636.726807,942.124878 1636.726807,912.366577 
	C1666.140747,912.366577 1695.657104,912.366577 1725.430298,912.366577 
	C1725.430298,941.778259 1725.430298,971.177307 1725.430298,1001.172241 
	C1715.031494,1001.172241 1704.765747,1001.172241 1694.000000,1001.172241 
z"/>
<path fill="#FDFDFD" opacity="1.000000" stroke="none" 
	d="
M382.428009,1380.999634 
	C382.428009,1363.052368 382.428009,1345.605103 382.428009,1328.061279 
	C412.387970,1328.061279 441.808105,1328.061279 471.472534,1328.061279 
	C471.472534,1357.691406 471.472534,1387.088745 471.472534,1416.745239 
	C441.894104,1416.745239 412.477905,1416.745239 382.428009,1416.745239 
	C382.428009,1405.029541 382.428009,1393.264526 382.428009,1380.999634 
z"/>
<path fill="#FDFDFD" opacity="1.000000" stroke="none" 
	d="
M536.000122,1327.827881 
	C549.438049,1327.827881 562.375977,1327.827881 575.511719,1327.827881 
	C575.511719,1357.763794 575.511719,1387.158081 575.511719,1416.778198 
	C545.859497,1416.778198 516.436829,1416.778198 486.739380,1416.778198 
	C486.739380,1387.341064 486.739380,1357.928345 486.739380,1327.827881 
	C503.021240,1327.827881 519.260620,1327.827881 536.000122,1327.827881 
z"/>
<path fill="#FEFEFE" opacity="1.000000" stroke="none" 
	d="
M660.999390,1417.001343 
	C637.359070,1417.001343 614.218750,1417.001343 590.794922,1417.001343 
	C590.794922,1387.364380 590.794922,1357.957642 590.794922,1328.190796 
	C620.305054,1328.190796 649.804565,1328.190796 679.533447,1328.190796 
	C679.533447,1357.732178 679.533447,1387.123779 679.533447,1417.001343 
	C673.394775,1417.001343 667.447021,1417.001343 660.999390,1417.001343 
z"/>
<path fill="#FCFCFC" opacity="1.000000" stroke="none" 
	d="
M992.735046,704.485535 
	C994.667236,704.564514 996.130310,704.643372 997.732849,704.729797 
	C997.732849,734.337585 997.732849,763.616211 997.732849,793.204834 
	C968.240723,793.204834 938.840393,793.204834 909.217285,793.204834 
	C909.217285,763.700378 909.217285,734.311157 909.217285,704.485474 
	C937.033813,704.485474 964.649841,704.485474 992.735046,704.485535 
z"/>
<path fill="#FCFCFC" opacity="1.000000" stroke="none" 
	d="
M1159.999756,793.514465 
	C1145.382568,793.514404 1131.265625,793.514404 1116.963745,793.514404 
	C1116.963745,763.758545 1116.963745,734.495911 1116.963745,704.859253 
	C1146.546387,704.859253 1176.047119,704.859253 1205.736816,704.859253 
	C1205.736816,734.268799 1205.736816,763.527039 1205.736816,793.514526 
	C1190.648193,793.514526 1175.573975,793.514526 1159.999756,793.514465 
z"/>
<path fill="#FDFDFD" opacity="1.000000" stroke="none" 
	d="
M1725.685547,1402.989746 
	C1725.685547,1407.791016 1725.685547,1412.094849 1725.685547,1416.697754 
	C1695.948364,1416.697754 1666.544922,1416.697754 1636.760498,1416.697754 
	C1636.760498,1387.302856 1636.760498,1357.790771 1636.760498,1328.052490 
	C1666.286133,1328.052490 1695.705322,1328.052490 1725.685547,1328.052490 
	C1725.685547,1352.953857 1725.685547,1377.723022 1725.685547,1402.989746 
z"/>
<path fill="#FBFBFB" opacity="1.000000" stroke="none" 
	d="
M1725.689941,868.000244 
	C1725.689941,877.802063 1725.689941,887.103943 1725.689941,896.789551 
	C1695.907349,896.789551 1666.401123,896.789551 1636.634277,896.789551 
	C1636.634277,867.552246 1636.634277,838.332947 1636.634277,808.798340 
	C1666.182129,808.798340 1695.565186,808.798340 1725.689941,808.798340 
	C1725.689941,828.383789 1725.689941,847.941956 1725.689941,868.000244 
z"/>
<path fill="#FDFDFD" opacity="1.000000" stroke="none" 
	d="
M679.763977,1243.000854 
	C679.763977,1266.444580 679.763977,1289.388306 679.763977,1312.666992 
	C649.980347,1312.666992 620.470520,1312.666992 590.806274,1312.666992 
	C590.806274,1283.245972 590.806274,1253.867676 590.806274,1224.414551 
	C620.487488,1224.414551 649.869385,1224.414551 679.763977,1224.414551 
	C679.763977,1230.606079 679.763977,1236.553589 679.763977,1243.000854 
z"/>
<path fill="#FDFDFD" opacity="1.000000" stroke="none" 
	d="
M679.765747,872.000122 
	C679.765747,880.469177 679.765747,888.438232 679.765747,896.788452 
	C649.995483,896.788452 620.487366,896.788452 590.741333,896.788452 
	C590.741333,867.556885 590.741333,838.331177 590.741333,808.796997 
	C620.295166,808.796997 649.670349,808.796997 679.765747,808.796997 
	C679.765747,829.732544 679.765747,850.616333 679.765747,872.000122 
z"/>
<path fill="#FBFBFB" opacity="1.000000" stroke="none" 
	d="
M1381.000244,704.482056 
	C1391.965210,704.482117 1402.430054,704.482117 1413.241577,704.482117 
	C1413.241577,734.213074 1413.241577,763.570679 1413.241577,793.223755 
	C1383.892944,793.223755 1354.662842,793.223755 1325.121826,793.223755 
	C1325.121826,763.770386 1325.121826,734.382568 1325.121826,704.481995 
	C1343.600098,704.481995 1362.050171,704.481995 1381.000244,704.482056 
z"/>
<path fill="#FEFEFE" opacity="1.000000" stroke="none" 
	d="
M1236.003174,1313.001709 
	C1230.713257,1313.001709 1225.922729,1313.001709 1220.973145,1313.001709 
	C1220.973145,1283.268188 1220.973145,1254.000000 1220.973145,1224.446045 
	C1250.550049,1224.446045 1279.956421,1224.446045 1309.649902,1224.446045 
	C1309.649902,1253.806274 1309.649902,1283.062744 1309.649902,1313.001709 
	C1285.342773,1313.001709 1260.922729,1313.001709 1236.003174,1313.001709 
z"/>
<path fill="#FFFFFF" opacity="1.000000" stroke="none" 
	d="
M1220.802246,1176.999756 
	C1220.802246,1157.860107 1220.802246,1139.220459 1220.802246,1120.290771 
	C1250.413574,1120.290771 1279.828735,1120.290771 1309.589600,1120.290771 
	C1309.589600,1149.673462 1309.589600,1179.195068 1309.589600,1208.942383 
	C1280.103394,1208.942383 1250.707031,1208.942383 1220.802246,1208.942383 
	C1220.802246,1198.373901 1220.802246,1187.936890 1220.802246,1176.999756 
z"/>
<path fill="#FEFEFE" opacity="1.000000" stroke="none" 
	d="
M1324.819336,1135.002808 
	C1324.819336,1129.857300 1324.819336,1125.211182 1324.819336,1120.282349 
	C1354.295898,1120.282349 1383.555542,1120.282349 1413.199219,1120.282349 
	C1413.199219,1149.705688 1413.199219,1179.226807 1413.199219,1208.959473 
	C1383.835449,1208.959473 1354.581299,1208.959473 1324.819336,1208.959473 
	C1324.819336,1184.376221 1324.819336,1159.939331 1324.819336,1135.002808 
z"/>
<path fill="#FFFFFF" opacity="1.000000" stroke="none" 
	d="
M1829.181885,1166.000000 
	C1829.181885,1180.483887 1829.181885,1194.467896 1829.181885,1208.809082 
	C1799.521240,1208.809082 1770.005981,1208.809082 1740.272217,1208.809082 
	C1740.272217,1179.323975 1740.272217,1149.920410 1740.272217,1120.258301 
	C1769.786011,1120.258301 1799.186157,1120.258301 1829.181885,1120.258301 
	C1829.181885,1135.337891 1829.181885,1150.418945 1829.181885,1166.000000 
z"/>
<path fill="#FEFEFE" opacity="1.000000" stroke="none" 
	d="
M174.859848,1288.000000 
	C174.859848,1266.561401 174.859848,1245.622803 174.859848,1224.423584 
	C204.628113,1224.423584 234.003250,1224.423584 263.678345,1224.423584 
	C263.678345,1253.852295 263.678345,1283.203125 263.678345,1312.778076 
	C234.214554,1312.778076 204.829834,1312.778076 174.859848,1312.778076 
	C174.859848,1304.666992 174.859848,1296.583496 174.859848,1288.000000 
z"/>
<path fill="#FDFDFD" opacity="1.000000" stroke="none" 
	d="
M278.877686,1280.000000 
	C278.877686,1261.218750 278.877686,1242.937622 278.877686,1224.409180 
	C308.533234,1224.409180 337.769562,1224.409180 367.345062,1224.409180 
	C367.345062,1253.848511 367.345062,1283.215576 367.345062,1312.793335 
	C337.956116,1312.793335 308.710907,1312.793335 278.877686,1312.793335 
	C278.877686,1302.003784 278.877686,1291.251953 278.877686,1280.000000 
z"/>
<path fill="#FEFEFE" opacity="1.000000" stroke="none" 
	d="
M894.092224,1295.998779 
	C894.092224,1301.805176 894.092224,1307.111816 894.092224,1312.708984 
	C864.489075,1312.708984 835.097717,1312.708984 805.351807,1312.708984 
	C805.351807,1283.542969 805.351807,1254.180542 805.351807,1224.489136 
	C834.584229,1224.489136 863.955994,1224.489136 894.092224,1224.489136 
	C894.092224,1248.073975 894.092224,1271.786499 894.092224,1295.998779 
z"/>
<path fill="#FEFEFE" opacity="1.000000" stroke="none" 
	d="
M997.890503,1228.249756 
	C997.890564,1256.650879 997.890564,1284.578003 997.890564,1312.752686 
	C968.143250,1312.752686 938.777710,1312.752686 909.205444,1312.752686 
	C909.205444,1283.359985 909.205444,1254.112671 909.205444,1224.470093 
	C910.394470,1224.370850 911.656982,1224.174438 912.919678,1224.173584 
	C939.721924,1224.155762 966.524170,1224.167603 993.326416,1224.147339 
	C995.877808,1224.145508 998.635803,1223.709229 997.890503,1228.249756 
z"/>
<path fill="#FFFFFF" opacity="1.000000" stroke="none" 
	d="
M804.999146,1402.993530 
	C804.999146,1377.720947 804.999146,1352.946655 804.999146,1328.045410 
	C834.868530,1328.045410 864.267029,1328.045410 893.877930,1328.045410 
	C893.877930,1357.665527 893.877930,1387.075073 893.877930,1416.742432 
	C864.393494,1416.742432 834.986633,1416.742432 804.999146,1416.742432 
	C804.999146,1412.359009 804.999146,1407.925415 804.999146,1402.993530 
z"/>
<path fill="#FDFDFD" opacity="1.000000" stroke="none" 
	d="
M1406.873047,1313.003418 
	C1379.428467,1313.003418 1352.468994,1313.003418 1325.163696,1313.003418 
	C1325.163696,1283.463989 1325.163696,1254.107544 1325.163696,1224.453857 
	C1354.372681,1224.453857 1383.610352,1224.453857 1413.216919,1224.453857 
	C1413.216919,1253.754395 1413.216919,1283.125244 1413.216919,1313.003418 
	C1411.244629,1313.003418 1409.301392,1313.003418 1406.873047,1313.003418 
z"/>
<path fill="#FEFEFE" opacity="1.000000" stroke="none" 
	d="
M1324.819336,1334.042480 
	C1324.819336,1331.887939 1324.819336,1330.227783 1324.819336,1328.199219 
	C1354.321289,1328.199219 1383.696289,1328.199219 1413.327515,1328.199219 
	C1413.327515,1357.643066 1413.327515,1387.063599 1413.327515,1416.743408 
	C1383.941772,1416.743408 1354.695068,1416.743408 1324.819336,1416.743408 
	C1324.819336,1389.358521 1324.819336,1361.947754 1324.819336,1334.042480 
z"/>
<path fill="#FEFEFE" opacity="1.000000" stroke="none" 
	d="
M1829.183594,1280.000000 
	C1829.183594,1291.136719 1829.183594,1301.773560 1829.183594,1312.705322 
	C1799.481934,1312.705322 1769.968872,1312.705322 1740.254395,1312.705322 
	C1740.254395,1283.322266 1740.254395,1254.088501 1740.254395,1224.507568 
	C1769.650269,1224.507568 1799.016479,1224.507568 1829.183594,1224.507568 
	C1829.183594,1242.742798 1829.183594,1261.121338 1829.183594,1280.000000 
z"/>
<path fill="#FEFEFE" opacity="1.000000" stroke="none" 
	d="
M307.000092,1327.831177 
	C327.417450,1327.831177 347.334778,1327.831177 367.464386,1327.831177 
	C367.464386,1357.754395 367.464386,1387.135010 367.464386,1416.758667 
	C338.025116,1416.758667 308.798492,1416.758667 279.225220,1416.758667 
	C279.225220,1387.341064 279.225220,1357.844360 279.225220,1327.831177 
	C288.311005,1327.831177 297.405518,1327.831177 307.000092,1327.831177 
z"/>
<path fill="#FFFFFF" opacity="1.000000" stroke="none" 
	d="
M1263.000000,1417.000000 
	C1248.719238,1417.000000 1234.938354,1417.000000 1220.982422,1417.000000 
	C1220.982422,1387.144287 1220.982422,1357.742310 1220.982422,1328.086670 
	C1250.562866,1328.086670 1279.965210,1328.086670 1309.651367,1328.086670 
	C1309.651367,1357.525757 1309.651367,1386.931641 1309.651367,1417.000000 
	C1294.330078,1417.000000 1278.915039,1417.000000 1263.000000,1417.000000 
z"/>
<path fill="#FEFEFE" opacity="1.000000" stroke="none" 
	d="
M909.000488,1360.000000 
	C909.000488,1349.053589 909.000488,1338.607178 909.000488,1328.000244 
	C938.742126,1328.000244 968.006592,1328.000244 997.579956,1328.000244 
	C997.579956,1357.491455 997.579956,1386.894897 997.579956,1416.649902 
	C968.323486,1416.649902 938.946716,1416.649902 909.000488,1416.649902 
	C909.000488,1398.010864 909.000488,1379.255371 909.000488,1360.000000 
z"/>
<path fill="#FFFFFF" opacity="1.000000" stroke="none" 
	d="
M1740.055054,1382.000000 
	C1740.055054,1363.857910 1740.055054,1346.215820 1740.055054,1328.203857 
	C1769.745239,1328.203857 1799.250488,1328.203857 1828.969482,1328.203857 
	C1828.969482,1357.679565 1828.969482,1387.084717 1828.969482,1416.745117 
	C1799.481567,1416.745117 1770.070801,1416.745117 1740.055054,1416.745117 
	C1740.055054,1405.348999 1740.055054,1393.924561 1740.055054,1382.000000 
z"/>
<path fill="#FFFFFF" opacity="1.000000" stroke="none" 
	d="
M870.999878,1209.165894 
	C848.860474,1209.165894 827.221069,1209.165894 805.290710,1209.165894 
	C805.290710,1179.544800 805.290710,1150.125000 805.290710,1120.352417 
	C834.621582,1120.352417 864.144043,1120.352417 893.879272,1120.352417 
	C893.879272,1149.802246 893.879272,1179.207520 893.879272,1209.165894 
	C886.362122,1209.165894 878.931030,1209.165894 870.999878,1209.165894 
z"/>
<path fill="#FEFEFE" opacity="1.000000" stroke="none" 
	d="
M804.996338,814.177002 
	C804.996338,812.208496 804.996338,810.716553 804.996338,808.858765 
	C834.699829,808.858765 864.213318,808.858765 893.903687,808.858765 
	C893.903687,838.214539 893.903687,867.455688 893.903687,896.933289 
	C864.322021,896.933289 834.929504,896.933289 804.996338,896.933289 
	C804.996338,869.494812 804.996338,842.074158 804.996338,814.177002 
z"/>
<path fill="#FDFDFD" opacity="1.000000" stroke="none" 
	d="
M989.882080,808.490356 
	C992.669678,808.490356 994.976013,808.490356 997.585083,808.490356 
	C997.585083,838.084229 997.585083,867.288330 997.585083,896.832397 
	C968.252319,896.832397 938.888794,896.832397 909.260864,896.832397 
	C909.260864,867.653015 909.260864,838.409546 909.260864,808.490295 
	C935.933838,808.490295 962.667236,808.490295 989.882080,808.490356 
z"/>
<path fill="#FDFDFD" opacity="1.000000" stroke="none" 
	d="
M1280.000488,808.491272 
	C1290.129639,808.491333 1299.758789,808.491333 1309.660034,808.491333 
	C1309.660034,838.102173 1309.660034,867.309143 1309.660034,896.843872 
	C1280.295532,896.843872 1250.917969,896.843872 1221.168945,896.843872 
	C1221.168945,867.683594 1221.168945,838.333557 1221.168945,808.491211 
	C1240.613892,808.491211 1260.057129,808.491211 1280.000488,808.491272 
z"/>
<path fill="#FDFDFD" opacity="1.000000" stroke="none" 
	d="
M1829.185791,855.000122 
	C1829.185791,869.145508 1829.185791,882.790894 1829.185791,896.803345 
	C1799.553345,896.803345 1770.047485,896.803345 1740.295898,896.803345 
	C1740.295898,867.556274 1740.295898,838.316040 1740.295898,808.783203 
	C1769.694458,808.783203 1799.095093,808.783203 1829.185791,808.783203 
	C1829.185791,824.036194 1829.185791,839.268127 1829.185791,855.000122 
z"/>
<path fill="#FFFFFF" opacity="1.000000" stroke="none" 
	d="
M859.000000,912.000244 
	C870.812195,912.000244 882.124451,912.000244 893.763184,912.000244 
	C893.763184,941.708496 893.763184,971.229492 893.763184,1000.958862 
	C864.259766,1000.958862 834.861572,1000.958862 805.231201,1000.958862 
	C805.231201,971.402893 805.231201,941.987915 805.231201,912.000244 
	C822.985291,912.000244 840.742676,912.000244 859.000000,912.000244 
z"/>
<path fill="#FEFEFE" opacity="1.000000" stroke="none" 
	d="
M909.000488,973.000000 
	C909.000488,952.531189 909.000488,932.562439 909.000488,912.296875 
	C938.592163,912.296875 967.972290,912.296875 997.621094,912.296875 
	C997.621094,941.728088 997.621094,971.123047 997.621094,1000.843140 
	C968.219482,1000.843140 938.849976,1000.843140 909.000488,1000.843140 
	C909.000488,991.728088 909.000488,982.614014 909.000488,973.000000 
z"/>
<path fill="#FFFFFF" opacity="1.000000" stroke="none" 
	d="
M1287.000000,1001.166809 
	C1264.851807,1001.166809 1243.203735,1001.166809 1221.178955,1001.166809 
	C1221.178955,971.524109 1221.178955,942.004578 1221.178955,912.241699 
	C1250.533813,912.241699 1279.943848,912.241699 1309.644531,912.241699 
	C1309.644531,941.661072 1309.644531,971.057007 1309.644531,1001.166809 
	C1302.324829,1001.166809 1294.912354,1001.166809 1287.000000,1001.166809 
z"/>
<path fill="#FEFEFE" opacity="1.000000" stroke="none" 
	d="
M1324.819336,935.000000 
	C1324.819336,927.187988 1324.819336,919.876038 1324.819336,912.281921 
	C1354.296997,912.281921 1383.556763,912.281921 1413.199707,912.281921 
	C1413.199707,941.706116 1413.199707,971.227478 1413.199707,1000.959961 
	C1383.835083,1000.959961 1354.580933,1000.959961 1324.819336,1000.959961 
	C1324.819336,979.042114 1324.819336,957.271057 1324.819336,935.000000 
z"/>
<path fill="#FFFFFF" opacity="1.000000" stroke="none" 
	d="
M1740.055420,997.841797 
	C1740.055176,969.070984 1740.055176,940.788025 1740.055176,912.253174 
	C1769.798096,912.253174 1799.200195,912.253174 1828.892578,912.253174 
	C1828.892578,941.672913 1828.892578,971.070923 1828.892578,1000.808899 
	C1827.958984,1000.915894 1826.864868,1001.149902 1825.770630,1001.150696 
	C1798.616943,1001.171021 1771.463379,1001.177979 1744.309692,1001.142761 
	C1742.384521,1001.140259 1739.569092,1002.131104 1740.055420,997.841797 
z"/>
<path fill="#FFFFFF" opacity="1.000000" stroke="none" 
	d="
M878.997437,1105.165894 
	C854.192627,1105.165894 829.887573,1105.165894 805.291138,1105.165894 
	C805.291138,1075.545654 805.291138,1046.125854 805.291138,1016.352905 
	C834.620789,1016.352905 864.143250,1016.352905 893.878845,1016.352905 
	C893.878845,1045.801636 893.878845,1075.206909 893.878845,1105.165894 
	C889.035339,1105.165894 884.266296,1105.165894 878.997437,1105.165894 
z"/>
<path fill="#FEFEFE" opacity="1.000000" stroke="none" 
	d="
M997.888733,1053.000000 
	C997.888733,1070.472778 997.888733,1087.445557 997.888733,1104.792480 
	C968.303284,1104.792480 938.933411,1104.792480 909.281311,1104.792480 
	C909.281311,1075.520630 909.281311,1046.104126 909.281311,1016.343140 
	C938.499390,1016.343140 967.881042,1016.343140 997.888733,1016.343140 
	C997.888733,1028.318848 997.888733,1040.409424 997.888733,1053.000000 
z"/>
<path fill="#FFFFFF" opacity="1.000000" stroke="none" 
	d="
M1309.934448,1067.000000 
	C1309.934448,1079.810303 1309.934448,1092.120483 1309.934448,1104.798340 
	C1280.232056,1104.798340 1250.726196,1104.798340 1221.010498,1104.798340 
	C1221.010498,1075.311523 1221.010498,1045.907471 1221.010498,1016.251465 
	C1250.509644,1016.251465 1279.920776,1016.251465 1309.934448,1016.251465 
	C1309.934448,1032.991821 1309.934448,1049.745850 1309.934448,1067.000000 
z"/>
<path fill="#FEFEFE" opacity="1.000000" stroke="none" 
	d="
M1324.819336,1031.002808 
	C1324.819336,1025.857300 1324.819336,1021.211304 1324.819336,1016.282349 
	C1354.295898,1016.282349 1383.555664,1016.282349 1413.199219,1016.282349 
	C1413.199219,1045.705688 1413.199219,1075.226807 1413.199219,1104.959473 
	C1383.835449,1104.959473 1354.581299,1104.959473 1324.819336,1104.959473 
	C1324.819336,1080.376221 1324.819336,1055.939331 1324.819336,1031.002808 
z"/>
<path fill="#FFFFFF" opacity="1.000000" stroke="none" 
	d="
M1770.000000,1105.166748 
	C1759.865234,1105.166748 1750.230347,1105.166748 1740.326660,1105.166748 
	C1740.326660,1075.454712 1740.326660,1046.047607 1740.326660,1016.319824 
	C1769.791260,1016.319824 1799.316284,1016.319824 1828.991699,1016.319824 
	C1828.991699,1045.874390 1828.991699,1075.277954 1828.991699,1105.166748 
	C1809.370239,1105.166748 1789.935181,1105.166748 1770.000000,1105.166748 
z"/>
<path fill="#FFFFFF" opacity="1.000000" stroke="none" 
	d="
M200.000000,1120.000244 
	C221.467041,1120.000244 242.434097,1120.000244 263.687927,1120.000244 
	C263.687927,1149.647583 263.687927,1179.049561 263.687927,1208.809082 
	C234.405060,1208.809082 205.013641,1208.809082 175.241867,1208.809082 
	C175.241867,1179.551758 175.241867,1150.025269 175.241867,1120.000244 
	C183.275345,1120.000244 191.387665,1120.000244 200.000000,1120.000244 
z"/>
<path fill="#FEFEFE" opacity="1.000000" stroke="none" 
	d="
M337.000000,1119.998291 
	C347.313416,1119.998291 357.126862,1119.998291 367.310516,1119.998291 
	C367.310516,1149.680786 367.310516,1179.173828 367.310516,1208.918579 
	C337.991333,1208.918579 308.762573,1208.918579 279.206177,1208.918579 
	C279.206177,1179.475464 279.206177,1149.968262 279.206177,1119.998291 
	C298.318817,1119.998291 317.409393,1119.998291 337.000000,1119.998291 
z"/>
<path fill="#FEFEFE" opacity="1.000000" stroke="none" 
	d="
M957.000000,1119.999512 
	C970.792847,1119.999512 984.085693,1119.999512 997.632080,1119.999512 
	C997.632080,1149.752197 997.632080,1179.147583 997.632080,1208.855469 
	C968.198975,1208.855469 938.829468,1208.855469 909.229736,1208.855469 
	C909.229736,1179.397705 909.229736,1149.985229 909.229736,1119.999512 
	C924.986145,1119.999512 940.743103,1119.999512 957.000000,1119.999512 
z"/>
<path fill="#FEFEFE" opacity="1.000000" stroke="none" 
	d="
M775.918213,1224.161377 
	C778.529358,1224.161377 780.650391,1224.161377 783.008057,1224.161377 
	C783.008057,1253.880005 783.008057,1283.126465 783.008057,1312.687256 
	C753.756958,1312.687256 724.384338,1312.687256 694.837769,1312.687256 
	C694.837769,1283.281738 694.837769,1253.893921 694.837769,1224.161377 
	C721.886780,1224.161377 748.657471,1224.161377 775.918213,1224.161377 
z"/>
<path fill="#FCFCFC" opacity="1.000000" stroke="none" 
	d="
M1413.262939,896.467285 
	C1396.539673,896.967163 1380.065186,897.100708 1363.590332,897.163696 
	C1350.811646,897.212585 1338.032593,897.173462 1325.036621,897.173462 
	C1325.036621,867.501526 1325.036621,838.254395 1325.036621,808.746948 
	C1354.397583,808.746948 1383.642944,808.746948 1413.511353,808.746948 
	C1413.511353,837.927979 1413.511353,866.999268 1413.262939,896.467285 
z"/>
<path fill="#FEFEFE" opacity="1.000000" stroke="none" 
	d="
M717.999939,897.169800 
	C710.024292,897.169800 702.548645,897.169800 694.816223,897.169800 
	C694.816223,867.619141 694.816223,838.392273 694.816223,808.828552 
	C724.102539,808.828552 753.307434,808.828552 782.883545,808.828552 
	C782.883545,838.000732 782.883545,867.204773 782.883545,897.169800 
	C761.604553,897.169800 740.052246,897.169800 717.999939,897.169800 
z"/>
<path fill="#FFFFFF" opacity="1.000000" stroke="none" 
	d="
M694.564575,1066.999634 
	C694.564575,1049.844727 694.564575,1033.189941 694.564575,1016.267944 
	C724.142639,1016.267944 753.541260,1016.267944 783.036865,1016.267944 
	C783.036865,1045.898682 783.036865,1075.307739 783.036865,1104.941040 
	C753.581665,1104.941040 724.338684,1104.941040 694.564575,1104.941040 
	C694.564575,1092.363281 694.564575,1079.931396 694.564575,1066.999634 
z"/>
<path fill="#FFFFFF" opacity="1.000000" stroke="none" 
	d="
M694.564575,995.994873 
	C694.564575,967.840759 694.564575,940.188904 694.564575,912.268799 
	C724.139526,912.268799 753.537903,912.268799 783.038818,912.268799 
	C783.038818,941.895813 783.038818,971.304504 783.038818,1000.939331 
	C753.586182,1000.939331 724.343567,1000.939331 694.564636,1000.939331 
	C694.564636,999.366943 694.564636,997.932068 694.564575,995.994873 
z"/>
<path fill="#FFFFFF" opacity="1.000000" stroke="none" 
	d="
M715.000244,1120.000244 
	C737.953125,1120.000244 760.406189,1120.000244 783.052979,1120.000244 
	C783.052979,1149.833374 783.052979,1179.239746 783.052979,1208.906006 
	C753.661438,1208.906006 724.420532,1208.906006 694.871704,1208.906006 
	C694.871704,1179.444336 694.871704,1150.036133 694.871704,1120.000244 
	C701.297302,1120.000244 707.898804,1120.000244 715.000244,1120.000244 
z"/>
</svg>